<svg width="135" height="99" viewBox="0 0 135 99" fill="none" xmlns="http://www.w3.org/2000/svg">
<path d="M109.352 88.4905C109.663 88.4127 109.974 88.257 110.285 88.1013C110.751 87.7899 111.218 87.4786 111.684 87.2451C112.461 86.778 113.238 86.3888 113.938 85.9218C115.337 85.0656 116.269 83.5866 116.114 81.8741C116.036 81.5628 116.036 81.1736 115.959 80.9401L115.259 77.6708L118.212 79.1497C118.368 79.2276 118.601 79.3054 118.834 79.3833C119.922 79.7725 121.01 79.6168 122.021 78.9941C122.565 78.6827 123.031 78.2935 123.497 77.8265C123.731 77.593 124.041 77.2816 124.275 77.0481C124.352 76.9702 124.508 76.8924 124.585 76.7367L124.663 76.6589C124.974 76.2697 125.363 75.8805 125.674 75.4135C126.062 74.9464 126.373 74.4794 126.684 74.0123C127.073 73.3896 127.461 72.8447 127.772 72.222C128.238 71.4436 128.705 70.5874 129.171 69.7312C129.637 68.9528 130.026 68.0965 130.492 67.2403C130.959 66.3841 131.347 65.45 131.736 64.5159C132.124 63.5818 132.513 62.6478 132.824 61.7915C133.135 60.9353 133.368 60.0012 133.601 59.0671C133.834 58.1331 134.067 57.199 134.223 56.2649C134.378 55.4087 134.456 54.5524 134.611 53.6962C134.689 52.9178 134.767 52.0616 134.845 51.2832C134.922 50.5048 134.922 49.6486 134.922 48.8702C134.922 48.1696 134.922 47.3912 134.922 46.6907V46.6128V46.535C134.922 46.4571 134.922 46.3015 134.922 46.1458C134.922 45.6009 134.845 44.9782 134.845 44.4333C134.767 43.8106 134.767 43.1879 134.611 42.5652C134.534 42.0981 134.456 41.5532 134.378 41.0862C134.301 40.5413 134.145 40.0743 134.067 39.5294C133.99 38.9845 133.834 38.4397 133.679 37.8948C133.601 37.6613 133.523 37.4278 133.446 37.1942L132.746 35.7931C132.746 35.7153 132.668 35.7153 132.668 35.6374C131.736 33.6915 130.181 30.033 128.238 28.9432C127.306 28.3984 126.295 28.2427 125.285 28.6319L117.979 30.8892L118.368 28.3205C118.756 25.5961 118.057 22.4047 116.658 19.9917L116.58 19.9139C115.492 18.2792 113.938 16.8003 111.995 16.2554L110.596 15.8662L110.829 14.4651C111.218 12.2856 110.674 9.95039 109.352 8.23792C107.487 5.66922 104.767 4.03459 101.58 3.95675C98.0829 3.87891 95.0518 5.59138 92.8756 8.23792L91.7876 9.56119L90.544 8.47144C90.3886 8.31576 90.1554 8.16008 90 8.0044C89.0674 7.22601 87.9016 6.91465 86.658 7.22601C85.9585 7.38169 85.4145 7.77088 84.8705 8.23792L84.0155 9.09416L82.9275 8.54928C81.3731 7.69304 79.5078 7.45953 77.7979 7.53737H77.7202L77.4093 7.38169C77.3316 7.30385 77.1762 7.30385 77.0984 7.30385C75.3109 6.68113 73.4456 6.60329 71.5803 6.99249C71.3471 7.07033 71.1917 7.07033 70.9585 7.14817L70.6477 7.22601H70.2591C69.4819 7.14817 68.6269 7.14817 67.772 7.30385C67.3834 7.38169 67.0725 7.53737 66.6839 7.53737H66.6062H66.5285C66.2176 7.53737 65.9845 7.61521 65.7513 7.69305L65.285 7.84872L64.8964 7.77088C63.2642 7.45953 61.5544 7.53737 60 8.23792L59.456 8.47144L58.9119 8.23792C58.6788 8.16008 58.5233 8.08224 58.2902 8.0044L57.2021 7.69305L57.1244 6.60329C57.0466 5.8249 56.9689 5.0465 56.8135 4.2681C56.5803 2.47779 55.2591 1.23236 53.4715 0.998843C50.9067 0.687485 48.4974 0.998844 46.1658 2.16644L45.544 2.55563L45 2.39996C44.5337 2.24428 44.0674 2.24428 43.601 2.24428C35.829 2.86699 28.8342 6.29193 23.2383 11.7407L22.9275 12.0521L22.4611 12.1299C18.4974 13.1418 14.7668 14.8543 11.2694 17.0338C9.79275 17.9679 9.17098 19.7582 9.63731 21.3928C9.71503 21.7042 9.79275 21.9377 9.87047 22.1712C10.2591 23.3388 10.9585 24.1172 12.1244 24.5842C12.3575 24.6621 12.5907 24.7399 12.8238 24.8177L14.456 25.2069L14.0674 26.8416C13.9896 27.2308 13.8342 27.6978 13.7565 28.1648L13.3679 29.8773L9.55959 28.7097C8.54922 28.3984 7.53886 28.4762 6.60622 29.0211C4.89637 29.9552 2.95337 34.0807 2.09845 35.871L1.39896 37.2721C1.32124 37.5056 1.1658 37.7391 1.1658 37.9726C1.01036 38.5175 0.932642 39.0624 0.777202 39.6073C0.699482 40.1521 0.544041 40.6192 0.466321 41.164C0.388601 41.6311 0.310881 42.176 0.233161 42.643C0.15544 43.2657 0.0777202 43.8884 0.0777202 44.5112C0.0777202 45.056 0 45.6009 0 46.1458C0 46.3015 0 46.3793 0 46.535V46.6128V46.6907C0 47.3912 0 48.1696 0 48.8702C0 49.6486 0 50.5048 0.0777202 51.2832C0.15544 52.0616 0.15544 52.9178 0.310881 53.6962C0.388601 54.5524 0.544041 55.4087 0.699482 56.2649C0.854922 57.199 1.08808 58.1331 1.32124 59.0671C1.5544 60.0012 1.86529 60.8575 2.09845 61.7915C2.40933 62.7256 2.79793 63.6597 3.18653 64.5159C3.57513 65.3721 3.96373 66.3062 4.43005 67.2403C4.81865 68.0965 5.28497 68.9528 5.7513 69.7312C6.21762 70.5874 6.68394 71.4436 7.15026 72.222C7.53886 72.8447 7.84974 73.3896 8.23834 74.0123C8.54922 74.4794 8.93782 74.9464 9.2487 75.4135C9.55959 75.8027 9.94819 76.2697 10.2591 76.6589C10.2591 76.7367 10.3368 76.7367 10.3368 76.7367C10.4145 76.8146 10.4922 76.9702 10.5699 77.0481C10.8031 77.2816 11.114 77.5151 11.3472 77.8265C11.8135 78.2935 12.2798 78.6827 12.8238 78.9941C13.8342 79.6168 14.8446 79.7725 16.0104 79.3833C16.0104 79.3833 16.0881 79.3833 16.0881 79.3054L18.886 78.2935L18.1865 81.1736C18.1088 81.4849 18.1088 81.7963 18.1088 82.0298C18.1088 83.4309 18.7306 84.6764 19.9741 85.3769C20.3627 85.6104 20.7513 85.844 21.1399 86.0775C21.5285 86.311 21.9171 86.5445 22.3057 86.778C22.5389 86.9337 22.772 87.0115 23.0052 87.1672L23.2383 87.2451L23.4715 87.4007C24.0933 87.9456 24.8705 88.3348 25.57 88.724C25.8031 88.8797 26.114 88.9575 26.4249 89.0354L26.8135 89.1132L27.1244 89.3467C27.5907 89.6581 28.057 89.9694 28.5233 90.203C29.1451 90.5143 29.7668 90.7478 30.4663 90.8257L30.9326 90.9035L31.2435 91.137C31.5544 91.4484 31.943 91.6041 32.3316 91.7598C33.1088 92.0711 33.886 92.3825 34.5855 92.6938C35.1295 92.9274 35.6736 93.083 36.2176 93.1609L36.6062 93.2387L36.9171 93.4722C37.3057 93.7057 37.6943 93.9393 38.1606 94.0171C38.6269 94.1728 39.0155 94.2506 39.4819 94.4063C39.9482 94.562 40.3368 94.7177 40.8031 94.7955C40.9585 94.8733 41.1917 94.8733 41.3471 94.8733C41.4249 94.8733 41.5026 94.8733 41.5803 94.8733H41.8912L42.1244 95.029C42.7461 95.3404 43.3679 95.5739 44.0674 95.6517C44.1451 95.6517 44.2228 95.7296 44.3005 95.7296H44.3782H44.456C44.8446 95.8074 45.3109 95.8853 45.6995 96.0409C46.0881 96.1188 46.4767 96.2745 46.943 96.3523C47.0207 96.4301 47.1762 96.4301 47.3316 96.4301H47.4093C47.487 96.508 47.6425 96.508 47.7979 96.508C48.1865 96.5858 48.6528 96.6637 49.0415 96.7415C49.43 96.8193 49.8187 96.8972 50.2073 96.975C50.4404 97.0528 50.6736 97.0528 50.9067 97.0528H51.2176L51.5285 97.1307C51.9171 97.2864 52.3057 97.3642 52.6943 97.442H52.772H52.8497C52.9275 97.442 52.9275 97.442 53.0052 97.442H53.0829H53.1606C53.8601 97.5977 54.4819 97.6756 55.1036 97.442L55.7254 97.2864L56.2694 97.5199C56.658 97.7534 57.1244 97.8312 57.5907 97.9091C58.1347 97.9869 58.7565 97.9869 59.3005 98.0648C59.9223 98.1426 60.4663 98.2204 61.0881 98.2983H61.1658H61.4767L61.7098 98.454C61.943 98.5318 62.1762 98.6096 62.4093 98.6875C63.0311 98.8432 63.5751 98.921 64.2746 98.7653C64.8186 98.6096 65.3627 98.454 65.9067 98.2204L66.5285 97.9869L67.1503 98.2983C67.228 98.2983 67.228 98.2983 67.228 98.3761C68.0829 98.7653 68.9378 98.921 69.8705 98.8432C70.5699 98.8432 71.2694 98.6875 71.8912 98.5318L72.4352 98.3761L72.9793 98.6096C73.2124 98.6875 73.4456 98.7653 73.7565 98.7653C74.456 98.8432 75 98.7653 75.6218 98.5318C76.7098 98.1426 77.7202 97.5977 78.6528 96.8193L79.43 96.1966L80.3627 96.5858C81.7617 97.2085 83.3938 97.2864 84.9482 97.0528C85.4922 96.975 86.0363 96.8193 86.5026 96.5858L86.7357 96.508H87.0466C87.2798 96.508 87.5907 96.4301 87.8238 96.4301C88.2902 96.3523 88.6788 96.1966 89.1451 96.1188C89.6114 96.0409 90.0777 95.8853 90.544 95.8074C90.6218 95.8074 90.7772 95.7296 90.8549 95.7296L90.9326 95.6517H91.0104C91.0881 95.6517 91.2435 95.5739 91.3212 95.5739C91.7876 95.4961 92.1762 95.3404 92.6425 95.1847C93.1088 95.1069 93.5751 95.029 94.0415 94.8733C94.4301 94.7955 94.7409 94.6398 95.1295 94.4841L95.285 94.4063L95.4404 94.3285C95.829 94.2506 96.1399 94.0949 96.5285 93.9393C97.3834 93.6279 98.2383 93.3944 99.0155 93.1609C99.2487 93.083 99.4042 93.0052 99.5596 92.9273L99.715 92.8495L99.8705 92.7717C100.104 92.6938 100.337 92.6938 100.57 92.5381C101.114 92.3046 101.58 92.0711 102.124 91.8376C102.902 91.4484 103.756 91.137 104.534 90.8257C104.922 90.67 105.233 90.5143 105.466 90.2808L105.699 90.0473L106.01 89.9695C106.632 89.8138 107.176 89.6581 107.72 89.3467C108.187 89.1132 108.575 88.8797 108.964 88.5683L109.197 88.3348L109.352 88.4905Z" fill="white"/>
<path fill-rule="evenodd" clip-rule="evenodd" d="M52.9271 80.7847C53.5488 70.8213 54.4815 78.7609 53.9374 69.8872C53.7043 66.1509 52.0722 65.5282 51.9944 65.4503L63.4193 48.0921C62.953 49.0262 65.1291 44.8229 66.1395 43.4996C66.1395 43.4996 66.1395 43.2661 66.2172 43.1882C66.4504 42.7212 67.1499 41.6314 67.2276 41.7093C67.3053 41.7871 66.6058 43.8888 66.5281 43.9666C66.4504 44.9007 62.3312 52.8403 62.0203 53.6187C60.8545 56.6545 59.611 58.1334 59.4556 59.1453C58.9893 61.0913 58.6784 61.247 58.6007 64.9833C58.6007 65.6838 58.5229 66.3844 58.5229 67.1628C58.5229 67.8634 58.4452 68.6417 58.4452 69.2645C58.3675 72.7672 58.6784 71.911 58.5229 72.5337C58.5229 73.0008 53.5488 80.0842 52.9271 80.7847Z" fill="#FFD026"/>
<path fill-rule="evenodd" clip-rule="evenodd" d="M63.4194 48.0923L44.8443 63.1932C44.8443 62.5705 43.6008 61.7921 43.6785 61.1694C43.7562 60.391 44.378 58.8342 44.5334 57.978C44.6112 57.5888 45.4661 56.8882 45.5438 56.7325L50.207 53.3076C50.3625 53.4633 50.9842 54.086 51.2174 54.2417L52.6163 55.6428L52.8495 53.6968C52.9272 53.1519 53.0827 52.0622 53.1604 51.5951L67.2277 41.8652L63.4194 48.0923ZM35.7511 61.4808C35.9065 60.858 36.9946 61.3251 35.5179 55.8763C35.3625 55.3314 35.5956 55.3314 35.3625 54.9422C35.1293 54.553 34.8962 54.1638 34.663 53.8525C34.663 53.8525 34.663 53.8525 34.5853 53.7746C34.3521 53.4633 34.1189 53.2297 33.8858 52.9184C33.6526 52.607 31.7873 50.7389 31.5542 50.5054C31.2433 50.2718 30.8547 49.9605 30.4661 49.727C30.2329 49.5713 29.9998 49.4156 29.7666 49.2599H29.6889L45.6993 46.1463C45.6993 46.2242 46.0101 46.9247 46.0879 46.9247C46.5542 47.9366 47.0982 48.9486 47.72 49.8826C47.72 49.9605 48.1086 50.5832 48.1086 50.5832C38.3158 57.1996 42.5127 53.3076 39.6371 59.4569L35.7511 61.4808ZM53.7044 44.8231L67.3055 41.7095L53.3158 48.248C53.4713 47.4696 53.7044 45.6015 53.7044 44.8231Z" fill="#FFD026"/>
<path fill-rule="evenodd" clip-rule="evenodd" d="M44.4561 34.5486L44.3006 34.6264C43.2903 34.8599 42.2799 35.0935 41.425 35.327C40.5701 35.5605 39.7151 35.8719 38.8602 36.1054C38.083 36.3389 37.3058 36.6503 36.6063 36.9616C35.8291 37.273 35.1297 37.5843 34.5856 37.8957C33.4975 38.4406 32.8758 38.8298 32.254 39.2968C30.6219 40.8536 27.9017 43.5001 28.368 45.8353C28.6789 47.3921 29.3784 48.404 30.4664 49.3381L30.9328 49.7273L45.6996 46.3024C45.6996 46.2245 45.6219 45.991 45.5442 45.991C44.8447 44.2007 44.3006 42.3325 44.1452 40.3866C43.9898 38.3627 44.0675 36.4167 44.4561 34.5486Z" fill="#FFF9AC"/>
<path fill-rule="evenodd" clip-rule="evenodd" d="M49.6634 33.4573C49.3525 33.5351 48.9639 33.613 48.653 33.6908C48.3422 35.4033 48.2644 37.8163 48.9639 39.6066C49.1194 38.906 49.1971 38.0498 49.2748 37.7385C49.4302 36.3373 49.5857 34.8584 49.6634 33.4573Z" fill="#FFF9AC"/>
<path fill-rule="evenodd" clip-rule="evenodd" d="M75.1558 32.1356C74.0677 32.0577 73.0574 31.9799 72.047 31.9021C71.2698 31.8242 70.5703 31.8242 69.8708 31.8242C69.7154 32.6805 69.3268 33.5367 68.705 34.1594C67.2284 35.6384 64.9745 35.7162 63.0315 35.327C60.6998 34.86 58.3682 33.7702 56.4252 32.3691C55.648 32.4469 55.1817 32.5248 54.5599 32.6026H54.4822C54.3268 36.4946 54.0936 40.7758 53.705 44.6677L67.3061 41.5542L104.301 49.2603C104.845 48.7932 105.156 48.1705 105.467 47.5478C105.778 46.9251 106.011 46.1467 106.244 45.4461C106.322 45.2126 106.71 44.5121 106.477 43.8893C106.011 42.4104 103.99 40.2309 102.747 39.219C102.669 39.219 102.669 39.1411 102.591 39.1411C102.203 38.8298 101.658 38.5184 101.192 38.2849C100.648 37.9735 100.104 37.6622 99.4823 37.4287C98.9382 37.1173 98.3165 36.8838 97.7724 36.6503C97.1507 36.4168 96.5289 36.1832 95.9072 35.9497C95.2077 35.7162 94.5082 35.5605 93.8087 35.327C93.0315 35.0935 92.332 34.9378 91.6325 34.7821C90.9331 34.6264 90.1558 34.3929 89.4564 34.2372C88.7569 34.0816 87.9797 33.9259 87.2025 33.7702C86.4253 33.6145 85.6481 33.4589 84.7931 33.3032C83.9382 33.1475 83.0056 32.9918 81.9952 32.8361C80.9071 32.6805 79.7413 32.5248 78.4978 32.3691C77.4097 32.2913 76.2439 32.2134 75.1558 32.1356Z" fill="#FFF9AC"/>
<path fill-rule="evenodd" clip-rule="evenodd" d="M63.4197 48.0935L45 63.1166L49.0415 64.7512H49.1192H49.1969H49.2746H49.3523H49.4301H49.5078H49.5855H49.6632H49.7409H49.8187H49.8964H49.9741H49.7409H49.8187H49.8964H49.9741H50.0518H50.1295H50.2073H50.285H50.3627H50.4404H50.5181H50.5959H50.6736H50.7513H50.829H50.5181C50.829 64.829 51.1399 64.9069 51.3731 64.9847C51.6062 65.0625 51.7617 65.0625 51.9171 65.1404C51.9948 65.2182 52.1503 65.2182 52.228 65.2961C58.2902 57.1229 57.513 57.9013 63.4197 48.0935Z" fill="#FFF9AC"/>
<path fill-rule="evenodd" clip-rule="evenodd" d="M48.1091 50.5832L40.2594 54.7087C41.0366 55.0201 41.5029 55.9541 41.9692 56.1877C42.9796 56.6547 44.8449 56.499 45.5444 56.7325L50.1299 53.3076C49.5081 52.5292 48.6532 51.4394 48.1091 50.5832ZM64.8967 42.8771L53.3941 48.248C53.3164 49.1821 53.2387 50.5832 53.0832 51.5173L59.4563 47.3139L67.3061 41.7095C66.6066 42.0208 65.4408 42.6435 64.8967 42.8771Z" fill="#FFF9AC"/>
<path fill-rule="evenodd" clip-rule="evenodd" d="M83.5493 75.1027C83.627 75.0248 83.8602 72.534 85.1037 68.7198C86.5027 64.283 84.1711 64.6722 82.9275 61.9478C81.14 58.1336 74.5338 50.8946 69.9483 45.6793C68.4716 43.9668 68.8602 43.889 67.8499 42.6435C67.6167 42.41 67.6944 41.943 67.3835 41.7095L88.2125 57.0439C88.2902 57.1217 89.0674 57.1217 89.456 57.8223C90.0001 58.9899 90.0778 61.1694 90.1555 61.4029C90.2332 61.7921 90.2332 62.2591 90.3109 62.6483C90.3887 63.4267 90.3887 64.1273 90.4664 65.0614V65.1392V65.217C90.5441 66.1511 90.6995 68.1749 90.6995 69.3425C90.6995 69.9653 90.6995 70.588 90.6218 71.2107C90.5441 71.8334 90.5441 72.4561 90.4664 73.1567C90.3887 73.8572 90.3887 74.48 90.3109 75.1805C90.2332 75.8811 90.1555 76.5816 90.0778 77.2822C90.0001 78.0606 89.2229 79.7731 89.1451 80.3179L83.5493 75.1027Z" fill="#FFD026"/>
<path fill-rule="evenodd" clip-rule="evenodd" d="M65.2853 59.4569L67.306 41.7095L66.6065 43.2663L58.5236 59.1455C58.6013 59.1455 58.7568 59.1455 58.9122 59.1455C59.3008 59.2233 63.3423 59.5347 63.42 59.5347C63.8086 59.5347 64.1195 59.5347 64.4303 59.5347L65.2853 59.4569ZM67.306 41.7095L69.4044 59.3012C70.5702 59.3012 70.7257 60.0017 70.8034 60.0017C71.5806 60.0017 72.6687 60.0017 73.9122 59.9239C74.4562 59.9239 75.078 59.8461 75.6998 59.8461C76.3992 59.7682 77.0987 59.7682 77.6428 59.6904C78.1868 59.6125 78.5754 59.6125 79.0417 59.5347C79.508 59.4569 79.8189 59.4569 80.1298 59.379L80.7516 59.3012C81.2956 59.2233 83.5495 58.9898 83.9381 58.9898C84.0935 58.9898 72.7464 47.4696 68.705 43.4219C68.1609 42.8771 67.5392 41.943 67.306 41.7095Z" fill="#FFF9AC"/>
<path fill-rule="evenodd" clip-rule="evenodd" d="M104.534 49.4934L67.3835 41.7095L92.254 55.4871C92.4095 55.5649 92.4872 55.6428 92.5649 55.7206C92.6426 55.7985 92.6426 55.8763 92.7204 55.9541C98.1608 57.6666 100.026 57.8223 100.726 59.3012C101.347 60.7023 102.746 61.5586 101.658 67.163C101.58 67.6301 102.202 70.8993 102.125 71.3664L102.047 71.5221L105.156 72.2226C105.389 71.1329 106.399 68.5642 106.555 67.4744C106.632 67.0852 106.71 66.696 106.788 66.229C106.865 65.7619 106.943 65.3727 106.943 64.9835C107.021 64.5165 107.021 64.0494 107.099 63.4267C107.176 62.804 107.332 58.912 107.254 57.5888C107.254 57.4331 105.078 50.3497 104.534 49.4934Z" fill="#FFD026"/>
<path fill-rule="evenodd" clip-rule="evenodd" d="M93.4198 55.1757L67.3835 41.7095L88.2126 57.0439C88.6012 57.2774 92.0209 56.3433 93.4198 55.1757Z" fill="#FFF9AC"/>
<path fill-rule="evenodd" clip-rule="evenodd" d="M67.6944 72.5332L69.3266 83.1194L69.4043 59.6897L67.3835 41.7866L67.6944 72.5332Z" fill="#FFD026"/>
<path fill-rule="evenodd" clip-rule="evenodd" d="M12.7458 65.0608C12.4349 64.6716 12.2018 64.2824 11.9686 63.8154L9.32614 69.6534L11.3469 62.9592C11.2691 62.8035 11.1137 62.57 11.036 62.4143C10.8805 62.1808 10.8028 62.0251 10.6474 61.7916L8.62665 66.3841L10.1811 60.8575C9.9479 60.3905 9.71474 59.9234 9.48158 59.5342V59.4564L8.08261 62.8813L9.1707 58.678C8.78209 57.8996 8.39349 57.0434 8.08261 56.1871C6.60593 52.0616 5.751 48.2475 5.51784 44.3555C5.3624 42.3317 5.3624 40.3078 5.51784 38.2062C5.67328 36.6494 5.82873 35.0926 6.13961 33.3801L4.35204 37.1164L3.57484 38.6732C3.49712 39.0624 3.34168 39.4516 3.18624 40.1522C3.10852 40.5414 3.0308 41.0084 2.95308 41.5533C2.87536 42.0203 2.79764 42.4874 2.71992 42.9544C2.6422 43.4993 2.6422 44.0441 2.56448 44.6669C2.48676 45.2117 2.48676 45.6788 2.48676 46.2237V46.535C2.48676 47.2356 2.48676 48.014 2.48676 48.7924C2.48676 49.5708 2.56448 50.3492 2.56448 51.1275C2.6422 51.9059 2.6422 52.6843 2.71992 53.3849C2.79764 54.1633 2.95308 54.9417 3.0308 55.7201C3.18624 56.4985 3.4194 57.4325 3.57484 58.2888C3.808 59.0672 4.04116 59.9234 4.27432 60.7797C4.5852 61.6359 4.9738 62.4921 5.28468 63.2705C5.67329 64.1268 6.06189 64.983 6.45049 65.8392C6.83909 66.6176 7.30541 67.4739 7.77173 68.2523C8.23805 69.1863 8.70437 70.0426 9.1707 70.6653C9.5593 71.288 9.87018 71.8329 10.1811 72.2999L12.7458 65.0608ZM10.1811 72.3777C10.4919 72.8448 10.8028 73.234 11.1137 73.6232C11.4246 74.0124 11.7355 74.4016 12.0463 74.7129L14.5334 67.3182C14.2225 66.929 13.8339 66.4619 13.4453 65.9171L10.1811 72.3777ZM12.1241 74.8686C12.2018 74.9464 12.9013 75.647 12.979 75.647C13.2899 75.9584 13.523 76.114 13.7562 76.2697L16.4764 69.6534L16.0101 69.1085C15.7769 68.875 15.5438 68.5636 15.2329 68.1744L12.1241 74.8686Z" fill="url(#paint0_linear)"/>
<path fill-rule="evenodd" clip-rule="evenodd" d="M97.1503 60.6247C97.5389 60.4691 98.7824 59.9242 99.171 59.6907C99.7928 59.3793 99.7928 58.9123 100.415 58.6009L100.881 57.589L95.285 55.5652L93.4197 55.0981C93.4974 55.3317 93.1865 56.1101 93.342 56.6549C93.4197 56.9663 93.1088 59.7685 93.1865 60.0799C93.2643 60.4691 95.829 60.2356 95.829 60.4691L97.1503 60.6247Z" fill="#FFF9AC"/>
<path fill-rule="evenodd" clip-rule="evenodd" d="M95.6734 60.0008C95.3625 60.1565 94.9739 60.0008 94.8962 59.6894C94.8184 59.6116 94.8184 59.5337 94.8184 59.4559V59.3781C94.8184 59.3781 94.8184 59.3002 94.8184 59.1445C94.8184 59.0667 94.7407 58.911 94.7407 58.6775C94.663 58.444 94.5853 58.1326 94.5076 57.8213C94.4298 57.5877 94.3521 57.2764 94.2744 57.0429C94.1967 56.7315 94.119 56.498 93.9635 56.1866C93.8858 55.8753 93.7304 55.6418 93.6526 55.4082C93.5749 55.2526 93.4972 55.1747 93.4972 55.019H93.4195C93.1863 55.1747 92.72 55.3304 92.2537 55.4861L91.9428 55.5639L91.7097 55.6418C91.3211 55.7974 90.9325 55.9531 90.6216 56.031C90.3884 56.1088 90.1553 56.1866 89.9221 56.2645C89.6889 56.3423 89.4558 56.4202 89.2226 56.498C88.9117 56.5758 88.6009 56.6537 88.29 56.7315C88.3677 56.965 88.5231 57.1207 88.6009 57.3542C88.6786 57.5877 88.834 57.8213 88.9117 58.0548C88.9895 58.2883 89.1449 58.5997 89.1449 58.8332C89.2226 59.0667 89.3003 59.3002 89.3781 59.5337C89.4558 59.7673 89.4558 60.0786 89.5335 60.4678C89.6112 60.857 89.6889 61.2462 89.7667 61.7132C89.8444 62.1024 89.8444 62.5695 89.9221 62.9587C89.9998 63.8149 89.9998 64.5155 90.0775 65.3717V65.4495V65.5274C90.1553 66.4615 90.1553 67.629 90.1553 68.8745C90.1553 69.4972 90.1553 70.1199 90.0775 70.7426C90.0775 71.4432 89.9998 72.0659 89.9998 72.6886C89.9221 73.3113 89.9221 74.0119 89.8444 74.7124C89.7667 75.4908 89.6889 76.1914 89.6112 76.8141C89.5335 77.7482 89.3781 78.6044 89.3003 79.2271L89.2226 79.772C89.2226 79.8499 89.2226 79.8499 89.2226 79.8499C89.6112 79.772 89.9998 79.6942 90.3884 79.6163C91.7874 79.305 93.2641 78.8379 94.663 78.3709C96.062 77.9039 97.3832 77.359 98.7044 76.8141C99.093 76.6584 99.4816 76.5028 99.7148 76.3471C99.948 76.1914 100.181 76.1136 100.337 75.9579C100.492 75.88 100.57 75.8022 100.647 75.7244C100.725 75.6465 100.803 75.4908 100.958 75.3352C101.114 75.1016 101.269 74.7903 101.425 74.4789C101.58 74.1676 101.658 73.8562 101.813 73.5449C101.969 73.1557 102.046 72.7665 102.202 72.3773C102.28 71.9881 102.357 71.5989 102.435 71.1318C102.513 70.6648 102.59 70.1978 102.668 69.6529C102.746 69.1858 102.824 68.7188 102.824 68.2518C102.901 67.7847 102.901 67.3177 102.901 66.7728C102.901 66.2279 102.979 65.7609 102.979 65.2939C102.979 64.8268 102.979 64.3598 102.979 63.8928C102.979 63.4257 102.901 62.9587 102.901 62.4916C102.901 62.1024 102.824 61.7132 102.824 61.4019C102.746 61.0127 102.746 60.7013 102.668 60.4678C102.59 60.0786 102.513 59.6116 102.357 59.1445C102.28 58.7553 102.124 58.3661 101.891 57.9769C101.813 57.8213 101.736 57.6656 101.658 57.5099C101.58 57.4321 101.502 57.2764 101.425 57.2764C101.347 57.1986 101.269 57.1985 101.191 57.1207C101.114 57.0429 101.036 57.0429 100.958 57.0429C100.881 57.0429 100.803 57.0429 100.725 57.0429C100.647 57.0429 100.57 57.0429 100.492 57.1207C100.337 57.1985 100.103 57.3542 99.7148 57.5099L99.5594 57.5877C98.9376 57.8991 98.3158 58.2883 97.6941 58.5218C96.9946 59.3002 96.3728 59.6116 95.6734 60.0008C95.7511 59.9229 95.7511 59.9229 95.6734 60.0008Z" fill="url(#paint1_linear)"/>
<path fill-rule="evenodd" clip-rule="evenodd" d="M95.0521 73.6217V73.3103C95.0521 73.0768 95.1298 72.8433 95.1298 72.532C95.1298 72.1428 95.2075 71.8314 95.2075 71.4422C95.2075 71.053 95.2852 70.6638 95.2852 70.1968C95.2852 69.7297 95.3629 69.2627 95.3629 68.7956C95.3629 68.4064 95.3629 68.0172 95.3629 67.6281C95.3629 67.2389 95.3629 66.9275 95.3629 66.5383C95.3629 65.8377 95.2852 65.1372 95.2852 64.3588C95.2852 64.0474 95.4407 63.8139 95.6738 63.7361C95.9847 63.5804 96.3733 63.5025 96.7619 63.3469C96.9173 63.269 97.1505 63.269 97.3059 63.1912C97.5391 63.1134 97.6945 63.1134 97.9277 63.1912C98.1609 63.269 98.3163 63.3469 98.4717 63.5804C98.6272 63.7361 98.7049 63.8917 98.7826 64.0474C98.8603 64.2031 98.9381 64.3588 99.0158 64.5923C99.0935 64.8258 99.1712 64.9815 99.2489 65.215C99.3267 65.4485 99.3267 65.6821 99.4044 65.9934C99.4821 66.2269 99.4821 66.5383 99.4821 66.9275C99.4821 67.3167 99.5598 67.7059 99.5598 68.1729C99.5598 68.5621 99.5598 68.9513 99.5598 69.3405C99.5598 69.7297 99.4821 70.1189 99.4821 70.4303C99.4044 70.8195 99.4044 71.1308 99.2489 71.3644C99.1712 71.6757 99.0158 71.9871 98.8603 72.2206C98.7049 72.532 98.4718 72.7655 98.2386 72.999C98.0054 73.2325 97.7723 73.3882 97.5391 73.5439C97.2282 73.7774 96.9173 73.9331 96.6842 74.0109C96.451 74.1666 96.2956 74.1666 96.1401 74.2444C95.9847 74.2444 95.8293 74.2444 95.7515 74.2444C95.2852 74.3223 95.0521 74.0109 95.0521 73.6217C95.0521 73.6995 95.0521 73.6217 95.0521 73.6217Z" fill="#FFD026"/>
<path fill-rule="evenodd" clip-rule="evenodd" d="M98.2383 66.93C98.3936 69.7322 98.0052 63.2715 98.2383 66.93V66.93Z" fill="url(#paint2_linear)"/>
<path d="M24.2484 81.4867C24.5593 80.9418 24.9479 80.2413 25.181 79.9299C25.3365 79.6964 25.4142 79.6964 25.5696 79.6964C25.7251 79.6964 25.8028 79.7742 26.036 79.8521C26.1137 79.7742 26.2691 79.5407 26.2691 79.4629C25.8805 79.2294 25.5696 79.0737 25.1033 78.7623C24.4038 78.3731 24.093 78.1396 23.9375 78.0618C23.8598 78.0618 23.7044 78.2953 23.7044 78.451C23.8598 78.6066 24.0152 78.7623 24.093 78.8402C24.2484 78.9958 24.1707 79.0737 24.093 79.3072C23.9375 79.6186 23.7044 80.0078 23.1603 80.864C22.7717 81.5645 22.3831 82.1873 22.2277 82.4208C21.9945 82.7321 21.9945 82.81 21.6836 82.7321C21.6059 82.7321 21.3728 82.5765 21.1396 82.5765C21.0619 82.5765 20.9064 82.81 20.9064 82.9657C21.1396 83.1213 21.4505 83.1992 22.15 83.6662C22.7717 84.0554 23.0826 84.2111 23.3935 84.4446C23.4712 84.4446 23.6266 84.2111 23.6266 84.1333C23.3935 83.9776 23.3158 83.8219 23.1603 83.7441C23.0049 83.5884 23.0826 83.4327 23.1603 83.1992C23.4712 82.7321 23.7044 82.3429 24.2484 81.4867ZM26.58 80.0856C26.8132 80.2413 26.8909 80.3191 26.9686 80.4748C27.0463 80.5526 27.0463 80.6305 27.0463 80.7083C26.9686 80.7862 26.8909 80.864 26.58 81.0197C25.4919 81.4089 24.7924 81.6424 24.3261 81.5645C24.3261 81.5645 24.2484 81.7202 24.1707 81.7202C24.2484 81.7981 24.2484 81.9537 24.2484 81.9537C24.3261 82.6543 24.4816 83.8997 24.5593 84.5225C24.637 84.6781 24.637 84.9117 24.7147 84.9895C24.8702 85.223 25.9582 85.8457 26.3468 86.0014C26.4246 86.0014 26.58 85.7679 26.58 85.69C26.4246 85.6122 26.2691 85.4565 26.1137 85.3009C26.036 85.223 25.9582 84.9895 25.8805 84.9117C25.6474 84.2111 25.4142 82.7321 25.3365 81.8759V81.7981L27.2018 81.1754C27.6681 81.0197 27.979 81.0975 28.4453 81.2532C28.523 81.2532 28.6785 81.0197 28.6785 80.864C28.4453 80.7083 28.2121 80.6305 27.5904 80.2413C27.0463 79.9299 26.7354 79.6964 26.58 79.6186C26.7354 79.7742 26.58 80.0078 26.58 80.0856ZM29.3779 87.5582C30.1551 87.9474 31.1655 88.0252 32.0981 87.5582C32.6422 87.2468 33.1085 86.7798 33.4194 86.0792C34.0411 84.756 33.808 83.1213 32.0204 82.2651C31.2432 81.8759 30.3883 81.7981 29.7665 82.0316C28.8339 82.2651 28.2898 82.8878 27.979 83.5884C27.6681 84.2889 27.5126 85.0673 27.7458 85.8457C27.9012 86.5463 28.4453 87.0912 29.3779 87.5582ZM29.8443 87.2468C29.4557 87.0912 29.3002 86.8576 29.1448 86.5463C28.7562 85.7679 28.9893 84.756 29.3779 83.9776C29.7665 83.1992 30.2329 82.5765 30.9323 82.4986C31.1655 82.4986 31.3987 82.4986 31.6318 82.6543C32.0204 82.81 32.1759 83.0435 32.3313 83.3549C32.6422 84.0554 32.4867 84.9895 32.0981 85.8457C31.7095 86.5463 31.3209 87.169 30.6992 87.3247C30.3883 87.4025 30.0774 87.3247 29.8443 87.2468ZM34.8961 84.2111C35.0515 84.2889 35.2069 84.3668 35.3624 84.4446C35.5178 84.6003 35.5178 84.6781 35.4401 84.9117C35.2847 85.3787 35.1292 85.7679 34.8183 86.6241C34.5852 87.2468 34.1966 88.1809 34.1189 88.4144C34.0411 88.648 33.8857 88.7258 33.7303 88.7258C33.5748 88.7258 33.3417 88.648 33.0308 88.648C32.9531 88.648 32.8753 88.9593 32.8753 89.0371C33.4194 89.2707 34.8183 89.8155 35.2069 89.9712C35.751 90.2047 36.295 90.2826 36.7613 90.2826C37.5385 90.2047 38.1603 89.8934 38.3935 89.1928C38.7043 88.4144 38.238 87.8696 37.6163 87.4804V87.4025C38.1603 87.4025 38.7043 87.169 38.8598 86.6241C39.2484 85.69 38.4712 85.1452 37.6163 84.8338C37.3054 84.6781 36.7613 84.5225 36.0619 84.2889C35.3624 84.0554 34.9738 83.8219 34.8183 83.8219C34.9738 83.8997 34.8183 84.1333 34.8961 84.2111ZM37.0722 85.1452C37.8494 85.4565 38.0826 85.9236 37.8494 86.5463C37.7717 86.8576 37.5385 87.0912 37.3054 87.0912C37.2277 87.0912 36.9168 87.0133 36.6059 86.9355C36.3727 86.8576 36.2173 86.7798 36.1396 86.7798C36.1396 86.7798 36.0619 86.702 36.1396 86.702C36.3727 86.1571 36.6836 85.3008 36.7613 85.1452L36.8391 85.0673C36.9168 85.0673 37.0722 85.0673 37.0722 85.1452ZM35.8287 89.7377C35.6733 89.6599 35.4401 89.5042 35.2847 89.3485C35.2069 89.2707 35.2069 89.115 35.2069 88.9593C35.2847 88.648 35.5955 87.8696 35.8287 87.2468C35.8287 87.169 35.9064 87.169 35.9064 87.169C35.9841 87.2468 36.2173 87.2468 36.2173 87.2468C37.1499 87.636 37.4608 88.1809 37.1499 88.8815C36.9168 89.7377 36.3727 89.8934 35.8287 89.7377ZM40.0256 86.2349C40.2588 86.3128 40.4142 86.3906 40.4919 86.4684C40.6474 86.5463 40.7251 86.702 40.6474 86.9355C40.5696 87.2468 40.4142 87.7917 40.1033 88.8036C39.9479 89.3485 39.637 90.3604 39.5593 90.5939C39.4816 90.8275 39.3261 90.9831 39.1707 90.9831C39.093 90.9831 38.8598 90.9053 38.7043 90.9053C38.6266 90.9831 38.5489 91.2945 38.6266 91.2945C38.8598 91.3723 39.3261 91.4502 40.0256 91.6837C40.7251 91.9172 41.1914 92.0729 41.3468 92.0729C41.4246 92.0729 41.58 91.6837 41.5023 91.6837C41.2691 91.6059 41.1914 91.528 41.036 91.4502C40.8805 91.3723 40.8028 91.2167 40.8805 90.9831C40.9582 90.7496 41.1137 90.2047 41.2691 89.6599L41.3468 89.582C41.4246 89.582 41.6577 89.6599 41.7354 89.6599C41.8132 89.7377 41.8909 89.7377 41.9686 89.8934C42.124 90.4383 42.3572 91.1388 42.5904 91.6837C42.6681 91.8394 42.7458 92.0729 42.979 92.2286C43.2898 92.4621 44.2225 92.7734 44.6888 92.9291C44.7665 92.9291 44.922 92.5399 44.922 92.5399C44.3779 92.3064 44.3002 92.2286 44.1448 91.8394C43.8339 91.2945 43.3676 90.1269 43.2898 89.7377V89.6599C43.9893 89.582 44.5334 89.2707 44.6888 88.5701C44.922 87.7917 44.4556 87.0133 43.3676 86.702C43.0567 86.6241 42.5904 86.4684 41.7354 86.2349C41.3468 86.1571 40.7251 85.9236 40.4919 85.8457C40.1033 85.8457 39.9479 86.1571 40.0256 86.2349ZM42.2795 86.9355C42.979 87.169 43.2898 87.7139 43.0567 88.4923C42.9012 89.0372 42.6681 89.1928 42.3572 89.2707C42.2018 89.3485 41.8132 89.1928 41.3468 89.115C41.2691 89.115 41.2691 89.0371 41.2691 89.0371C41.4246 88.4144 41.7354 87.3247 41.8132 87.0912C41.8132 87.0133 41.8909 87.0133 41.8909 86.9355C42.0463 86.9355 42.2018 86.9355 42.2795 86.9355ZM45.8546 87.8696C46.0878 87.9474 46.2432 88.0252 46.3986 88.1031C46.5541 88.1809 46.5541 88.3366 46.5541 88.4923C46.4764 88.8815 46.3986 89.2707 46.1655 90.1269C46.01 90.9053 45.6992 91.9951 45.6214 92.1507C45.5437 92.4621 45.466 92.5399 45.1551 92.5399C44.9997 92.5399 44.922 92.5399 44.6888 92.5399C44.6111 92.5399 44.5334 92.8513 44.6111 92.9291C44.922 93.007 45.3106 93.0848 46.0878 93.2405C46.7872 93.3962 47.2536 93.5518 47.4867 93.6297C47.5644 93.6297 47.6422 93.3183 47.6422 93.2405C47.409 93.1626 47.1758 93.007 47.0981 93.007C46.865 92.8513 46.865 92.6956 46.9427 92.5399C47.0204 92.1507 47.2536 91.2945 47.409 90.5161C47.6422 89.7377 47.7199 89.2707 47.7976 88.9593C47.8753 88.7258 47.8753 88.5701 48.1085 88.5701C48.2639 88.5701 48.4194 88.5701 48.6525 88.5701C48.7302 88.4923 48.7303 88.2588 48.7303 88.1809C48.4971 88.1031 48.1085 88.0252 47.3313 87.8696C46.7095 87.7139 46.2432 87.5582 46.01 87.4804C45.9323 87.5582 45.8546 87.7917 45.8546 87.8696ZM49.0411 88.648C49.352 88.7258 49.5075 88.8036 49.6629 88.8815C49.896 89.0372 49.896 89.2707 49.896 89.4263C49.6629 90.6718 49.2743 92.3064 49.1189 92.8513C49.0411 93.0848 48.9634 93.2405 48.7303 93.3183C48.4971 93.3183 48.3416 93.3183 48.1085 93.3183C48.0308 93.3962 48.0308 93.7075 48.0308 93.7075C48.3416 93.7854 48.808 93.7854 49.2743 93.941C49.7406 94.0189 50.1292 94.1746 50.5178 94.2524C50.5955 94.1746 50.6733 93.8632 50.5955 93.8632C50.3624 93.7854 50.2069 93.7075 50.0515 93.6297C49.8183 93.474 49.7406 93.3183 49.7406 92.9291C49.8183 92.4621 50.1292 90.9053 50.2846 89.9712H50.3624C50.9064 91.061 52.3054 93.7854 52.7717 94.7194C52.9271 94.7194 53.5489 94.8751 53.7043 94.8751C53.7821 94.5638 53.8598 94.0189 53.9375 93.6297C54.2484 92.1507 54.4815 91.061 54.637 90.4383C54.7147 90.0491 54.8701 89.9712 55.1033 89.9712C55.2587 89.9712 55.3365 89.9712 55.4919 89.9712C55.5696 89.8934 55.5696 89.582 55.5696 89.582C55.3365 89.582 54.9479 89.5042 54.4038 89.3485C53.7043 89.2707 53.3157 89.115 53.0826 89.115L53.0049 89.5042C53.238 89.582 53.3935 89.6599 53.6266 89.7377C53.8598 89.8934 53.9375 90.0491 53.9375 90.3604C53.8598 91.061 53.7043 91.9172 53.4712 93.0848H53.3935C53.0049 92.3843 51.9945 90.4383 51.3727 89.3485C51.2173 89.0371 51.1396 88.8815 51.1396 88.7258C50.9841 88.7258 50.6733 88.648 50.4401 88.648C49.7406 88.4923 49.4297 88.4144 49.1189 88.3366C49.1189 88.2588 49.0411 88.648 49.0411 88.648ZM61.3209 95.1865C61.0878 95.1086 60.9323 95.1086 60.6214 95.0308C60.3883 94.953 60.3105 94.7194 60.3105 94.3302C60.3883 93.6297 60.5437 91.8394 60.6214 91.1388C60.7769 90.0491 60.7769 89.582 60.9323 89.2707C60.9323 89.2707 60.7769 89.1928 60.6992 89.1928C60.1551 89.3485 59.1447 89.5042 58.4453 89.5042C58.3675 89.5042 58.2898 89.8934 58.3675 89.9712C58.6007 89.9712 58.9116 90.0491 59.067 90.1269C59.2225 90.2047 59.3002 90.2826 59.3002 90.4383C59.3002 90.7496 59.2225 91.4502 59.1447 92.3064C59.067 93.007 58.9893 93.8632 58.9116 94.2524C58.8339 94.5638 58.7561 94.7973 58.4453 94.7973C58.2121 94.7973 58.0567 94.7973 57.6681 94.7973C57.5903 94.8751 57.5903 95.1865 57.5903 95.2643C58.1344 95.3422 58.7561 95.3422 59.3779 95.42C60.0774 95.4978 60.6214 95.5757 61.2432 95.6535C61.3209 95.5757 61.3986 95.2643 61.3209 95.1865ZM63.1862 96.1984C65.6732 95.6535 67.3831 94.0189 67.3831 91.9951C67.3831 90.6718 66.6836 89.3485 65.1292 89.3485C64.5852 89.3485 64.1188 89.5042 63.808 89.6599C63.0308 90.0491 62.5644 90.8275 62.5644 91.6837C62.5644 92.6956 63.1862 93.7075 64.2743 93.7075C64.5074 93.7075 65.0515 93.5518 65.6732 93.2405C65.751 93.2405 65.751 93.2405 65.751 93.3183C65.2846 94.2524 64.5852 95.0308 63.0308 95.7314C62.953 95.8092 63.1085 96.1984 63.1862 96.1984ZM64.7406 89.8934C65.5955 89.8934 65.9064 90.9053 65.9064 91.9172C65.9064 92.1507 65.9064 92.2286 65.8287 92.5399C65.8287 92.6178 65.751 92.6956 65.6732 92.6956C65.5178 92.7735 65.2846 92.8513 65.0515 92.8513C64.352 92.8513 63.808 92.3064 63.808 91.1388C63.8857 90.3604 64.2743 89.8934 64.7406 89.8934ZM70.2587 89.2707C69.3261 89.2707 68.4712 90.1269 68.238 90.5161C68.238 90.5939 68.3934 90.9053 68.4712 90.9053C68.8598 90.5161 69.2484 90.2826 69.7147 90.2826C70.4142 90.2826 70.8028 90.6718 70.8028 91.2167C70.8028 91.7615 70.4142 92.0729 69.4815 92.3064C69.4038 92.3064 69.2484 92.9291 69.2484 93.007C69.4038 93.007 69.4815 93.007 69.637 93.007C70.6473 93.007 71.3468 93.5518 71.3468 94.4081C71.3468 95.1865 70.8028 95.5757 70.2587 95.5757C69.8701 95.5757 69.7147 95.5757 69.3261 95.42C69.0152 95.2643 68.6266 94.8751 68.4712 94.6416C68.3934 94.6416 68.0826 94.7973 68.0826 94.8751C68.1603 95.1865 68.3157 95.4978 68.3934 95.6535C68.4712 95.887 68.6266 95.9649 68.782 96.0427C69.0152 96.1206 69.3261 96.1984 69.8701 96.1984C70.4919 96.1984 71.1136 95.9649 71.6577 95.6535C72.3572 95.1865 72.7458 94.5638 72.7458 93.7854C72.7458 92.9291 72.0463 92.3843 71.1914 92.1507C71.7354 91.7615 72.124 91.4502 72.124 90.8275C71.9686 89.9712 71.3468 89.2707 70.2587 89.2707ZM74.3002 96.0427C76.7095 95.1865 78.1862 93.3183 77.953 91.2945C77.7976 89.9712 76.9427 88.8036 75.3883 88.9593C74.9219 89.0371 74.4556 89.1928 74.1447 89.4263C73.3675 89.9712 73.0567 90.7496 73.1344 91.6059C73.2121 92.6178 73.9893 93.5518 75.0774 93.3962C75.3105 93.3962 75.8546 93.1626 76.3986 92.7735C76.4763 92.7735 76.4763 92.7734 76.4763 92.8513C76.1655 93.8632 75.5437 94.7194 74.1447 95.5757C73.9893 95.7314 74.1447 96.0427 74.3002 96.0427ZM75.0774 89.582C75.9323 89.5042 76.3986 90.4383 76.4763 91.4502C76.4763 91.6059 76.4763 91.7615 76.4763 92.0729C76.4763 92.1507 76.3986 92.2286 76.3209 92.3064C76.1655 92.3843 75.9323 92.5399 75.7769 92.5399C75.0774 92.6178 74.4556 92.1507 74.3002 90.9831C74.2225 90.2047 74.5333 89.6599 75.0774 89.582ZM84.9478 90.0491C84.9478 90.1269 85.3364 89.9712 85.3364 89.9712C85.2587 89.5042 85.181 88.7258 85.181 88.4144C84.7924 88.4923 84.0929 88.4144 83.238 88.648C82.4608 88.8036 81.9168 89.0371 81.5282 89.3485C80.5955 90.0491 80.2846 91.061 80.5178 92.0729C80.9064 94.0189 82.3054 94.7973 84.3261 94.4081C84.9478 94.2524 85.4142 94.0189 85.6473 93.8632C85.8805 93.6297 86.1136 92.8513 86.1914 92.4621C86.1136 92.3843 85.8805 92.3064 85.8028 92.3064C85.6473 92.7735 85.4142 93.1626 85.2587 93.3962C85.0256 93.6297 84.7924 93.7854 84.4815 93.7854C82.9271 94.0967 82.1499 92.8513 81.9168 91.7615C81.6059 90.2047 82.0722 89.3485 83.1603 89.115C83.5489 89.0371 83.9375 89.0371 84.2484 89.115C84.637 89.1928 84.7147 89.4263 84.9478 90.0491ZM85.9582 88.5701C86.1914 88.5701 86.3468 88.4923 86.5022 88.5701C86.7354 88.5701 86.7354 88.648 86.8131 88.9593C86.8908 89.1928 87.0463 89.8155 87.2017 90.6718C87.4349 91.4502 87.5903 92.2286 87.5903 92.4621C87.668 92.8513 87.668 93.007 87.3572 93.0848C87.2794 93.1627 87.124 93.2405 86.8908 93.3183C86.8908 93.3962 86.9686 93.7075 86.9686 93.7075C87.124 93.6297 87.5903 93.5518 88.2898 93.3962C89.1447 93.1626 89.611 93.0848 89.7665 93.0848C89.8442 93.007 89.7665 92.6956 89.6888 92.6956C89.4556 92.6956 89.2224 92.7735 89.067 92.6956C88.8338 92.6956 88.7561 92.5399 88.6784 92.3064C88.6007 92.0729 88.4452 91.4502 88.2898 90.9053V90.8275C88.3675 90.7496 88.6007 90.7496 89.4556 90.5161C89.9219 90.4383 90.3882 90.2826 90.6214 90.2826C90.6214 90.2826 90.6991 90.2826 90.6991 90.3604C90.8546 90.9053 90.9323 91.528 91.0877 91.9172C91.1655 92.1507 91.0877 92.3064 90.9323 92.3064C90.7768 92.3843 90.6991 92.4621 90.466 92.5399C90.3883 92.6178 90.466 92.9291 90.5437 92.9291C90.7768 92.8513 91.2432 92.6956 91.8649 92.5399C92.5644 92.3843 93.1085 92.3064 93.2639 92.2286C93.3416 92.1507 93.2639 91.8394 93.1862 91.8394C92.8753 91.8394 92.6421 91.9172 92.4867 91.8394C92.3313 91.8394 92.2535 91.6837 92.1758 91.4502C92.0981 91.061 91.8649 90.2826 91.7095 89.6599C91.4763 88.8815 91.3986 88.4144 91.3209 87.9474C91.2432 87.636 91.2432 87.5582 91.3986 87.4025C91.4763 87.3247 91.7095 87.2468 91.8649 87.169C91.9426 87.0912 91.8649 86.7798 91.7872 86.7798C91.554 86.8576 91.1655 86.9355 90.466 87.0912C89.7665 87.2468 89.4556 87.3247 89.067 87.4025C88.9893 87.4804 89.067 87.7917 89.1447 87.7917C89.4556 87.7917 89.611 87.7139 89.7665 87.7917C89.9219 87.7917 89.9219 87.9474 89.9996 88.0252C90.0774 88.4923 90.2328 89.0371 90.3883 89.5042C90.3883 89.5042 90.3882 89.582 90.3105 89.582C90.2328 89.6599 89.9996 89.6599 89.2225 89.8934C88.2898 90.1269 88.1344 90.1269 88.0566 90.1269C88.0566 90.1269 87.9789 90.1269 87.9789 90.0491C87.8235 89.4263 87.7458 89.0371 87.668 88.648C87.5903 88.4144 87.5903 88.2588 87.8235 88.1809C87.9012 88.1031 88.0566 88.0252 88.2898 87.9474C88.3675 87.8696 88.2898 87.5582 88.2121 87.5582C87.9789 87.636 87.5903 87.7139 86.8908 87.9474C86.1136 88.1031 85.8028 88.1809 85.5696 88.2588C85.8805 88.2588 85.8805 88.5701 85.9582 88.5701ZM92.6421 86.8576C92.8753 86.7798 93.0307 86.7798 93.1862 86.7798C93.3416 86.7798 93.4193 86.7798 93.5748 87.0912C93.6525 87.3247 93.8857 88.0252 94.1188 88.7258C94.5074 89.7377 94.6629 90.2826 94.7406 90.6718C94.8183 90.9831 94.7406 91.061 94.5851 91.1388C94.4297 91.2167 94.1965 91.3723 93.8857 91.528C93.8857 91.6059 93.9634 91.8394 94.0411 91.9172C94.5074 91.7615 95.1292 91.528 95.6732 91.3723C96.6059 91.061 97.5385 90.8275 98.238 90.5939C98.6266 90.5161 98.6266 90.3604 98.6266 90.2826C98.7043 89.8934 98.7043 89.115 98.6266 88.8815C98.5489 88.8036 98.238 88.8036 98.1603 88.8815C98.0826 89.1928 98.0825 89.5042 97.9271 89.7377C97.8494 90.1269 97.6939 90.2047 97.3831 90.2826C96.9167 90.4383 96.295 90.6718 96.1395 90.6718C95.9841 90.6718 95.9064 90.5939 95.8287 90.4383L95.3623 89.0371C95.3623 89.0371 95.3623 88.9593 95.4401 88.9593C95.7509 88.8815 96.295 88.648 96.5281 88.5701C96.6836 88.5701 96.7613 88.5701 96.839 88.7258C96.9167 88.8036 96.9167 88.8036 97.0722 89.115C97.1499 89.115 97.4608 89.0371 97.5385 88.9593C97.4608 88.7258 97.3053 88.3366 97.2276 88.0252C97.1499 87.7139 97.0722 87.3247 96.9945 87.169C96.9167 87.0912 96.5281 87.2468 96.4504 87.2468C96.4504 87.4025 96.5281 87.5582 96.5281 87.636C96.5281 87.7917 96.5281 87.8696 96.3727 87.9474C96.0618 88.0252 95.5955 88.1809 95.2846 88.3366C95.2846 88.3366 95.2069 88.3366 95.2069 88.2588C95.0515 87.636 94.8183 87.2468 94.6629 86.702C94.6629 86.6241 94.6629 86.5463 94.7406 86.4684C94.8183 86.3906 95.7509 86.0792 95.9841 86.0792C96.1395 86.0014 96.295 86.0014 96.4504 86.2349C96.5281 86.3906 96.6059 86.4684 96.7613 86.7798C96.839 86.7798 97.1499 86.702 97.1499 86.6241C96.9945 86.1571 96.839 85.5344 96.839 85.223C96.839 85.223 96.7613 85.223 96.7613 85.1452C96.5281 85.3008 95.9841 85.4565 95.6732 85.6122L93.8079 86.2349C93.3416 86.3906 92.7976 86.5463 92.409 86.702C92.4867 86.4684 92.5644 86.7798 92.6421 86.8576ZM97.6939 85.1452C97.9271 85.0673 98.0825 85.0673 98.238 84.9895C98.3934 84.9895 98.5489 84.9895 98.6266 85.223C98.782 85.4565 99.0152 86.1571 99.3261 86.7798C99.7924 87.7917 100.026 88.3366 100.103 88.7258C100.181 88.9593 100.181 89.115 100.026 89.1928C99.9478 89.2707 99.7147 89.4263 99.4038 89.582C99.4038 89.6599 99.4815 89.8934 99.5592 89.9712C100.026 89.8155 100.647 89.4263 101.114 89.2707C102.046 88.8815 102.901 88.5701 103.601 88.2588C103.989 88.1031 103.989 88.0252 103.989 87.8696C104.067 87.4804 103.912 86.702 103.912 86.4684C103.834 86.3906 103.523 86.4684 103.445 86.4684C103.445 86.7798 103.368 87.0912 103.368 87.3247C103.29 87.7139 103.134 87.7917 102.901 87.8696C102.435 88.1031 101.813 88.3366 101.658 88.3366C101.58 88.3366 101.425 88.2588 101.347 88.1031L100.803 86.7798V86.702C101.114 86.6241 101.658 86.3128 101.813 86.3128C101.969 86.2349 102.046 86.3128 102.124 86.3906C102.202 86.4684 102.202 86.4684 102.357 86.702C102.435 86.702 102.746 86.5463 102.823 86.4684C102.746 86.2349 102.513 85.8457 102.435 85.6122C102.357 85.3787 102.202 84.9117 102.124 84.756C102.046 84.756 101.735 84.8338 101.658 84.9117C101.658 85.0673 101.735 85.223 101.735 85.3009C101.735 85.4565 101.735 85.5344 101.58 85.6122C101.269 85.7679 100.803 86.0014 100.492 86.0792C100.414 86.0792 100.414 86.0792 100.414 86.0014C100.181 85.4565 99.9478 85.0673 99.7924 84.4446C99.7924 84.3668 99.7147 84.2889 99.7924 84.2111C99.8701 84.1333 100.803 83.7441 101.036 83.6662C101.191 83.5884 101.347 83.5884 101.502 83.7441C101.658 83.8997 101.735 83.9776 101.891 84.2111C101.969 84.2111 102.279 84.0554 102.279 83.9776C102.124 83.5105 101.891 82.9657 101.813 82.6543H101.735C101.502 82.81 100.958 83.0435 100.647 83.1992L98.8597 83.9776C98.4711 84.1333 97.9271 84.3668 97.5385 84.5225C97.5385 84.8338 97.6162 85.1452 97.6939 85.1452ZM104.611 85.7679C104.533 85.7679 104.3 86.0014 104.3 86.0792C104.456 86.3906 105.077 87.2468 105.233 87.3247C105.544 87.3247 106.088 87.2468 106.709 86.9355C108.031 86.3128 108.342 85.223 107.953 84.3668C107.642 83.7441 107.254 83.5884 106.476 83.5105C106.01 83.4327 105.699 83.4327 105.233 83.4327C104.766 83.3549 104.533 83.277 104.3 82.8878C104.145 82.4986 104.222 82.1094 104.689 81.8759C104.922 81.7202 105.233 81.7202 105.388 81.7981C105.621 81.8759 105.855 82.0316 106.165 82.4986C106.243 82.4986 106.554 82.4208 106.554 82.3429C106.321 81.7981 106.165 81.331 106.088 81.0197C105.621 81.1754 105.233 81.2532 104.533 81.5645C103.601 82.0316 102.979 82.9657 103.445 83.8997C103.912 84.8338 104.766 84.8338 105.544 84.9117C106.632 84.9895 106.865 85.1452 107.098 85.5344C107.331 86.0014 107.02 86.3128 106.709 86.5463C106.476 86.6241 106.165 86.702 105.855 86.702C105.466 86.4684 105.077 86.1571 104.611 85.7679ZM106.787 80.9418C107.02 80.864 107.176 80.7862 107.331 80.7862C107.487 80.7083 107.564 80.7083 107.72 80.9418C107.875 81.1753 108.264 81.7981 108.575 82.4208C109.119 83.3549 109.43 83.8219 109.585 84.2111C109.741 84.4446 109.663 84.6003 109.585 84.756C109.507 84.8338 109.274 84.9895 109.041 85.223C109.041 85.3008 109.197 85.5344 109.274 85.6122C109.663 85.3787 110.285 84.9895 110.751 84.6781C111.606 84.1333 112.461 83.7441 113.083 83.3549C113.471 83.1213 113.471 83.0435 113.471 82.9657C113.471 82.5765 113.238 81.7981 113.16 81.5645C113.083 81.4867 112.772 81.5645 112.694 81.6424C112.772 81.9537 112.772 82.2651 112.694 82.4986C112.694 82.8878 112.538 82.9657 112.305 83.1213C111.917 83.3549 111.295 83.6662 111.14 83.7441C111.062 83.7441 110.906 83.7441 110.751 83.5884L109.974 82.3429V82.2651C110.207 82.1094 110.751 81.7981 110.906 81.7202C111.062 81.6424 111.14 81.6424 111.295 81.7202C111.373 81.7981 111.373 81.7981 111.606 82.0316C111.684 82.0316 111.994 81.8759 111.994 81.7981C111.839 81.5646 111.606 81.2532 111.45 81.0197C111.295 80.7862 111.14 80.397 111.062 80.2413C110.984 80.2413 110.673 80.397 110.595 80.4748C110.595 80.6305 110.673 80.7862 110.673 80.864C110.751 81.0197 110.673 81.0975 110.595 81.2532C110.285 81.4867 109.896 81.7202 109.585 81.8759H109.507C109.197 81.331 108.963 80.9418 108.652 80.4748C108.652 80.397 108.575 80.3191 108.652 80.2413C108.73 80.1634 109.585 79.6964 109.818 79.5407C109.974 79.4629 110.129 79.4629 110.285 79.6186C110.44 79.6964 110.518 79.7742 110.673 80.0078C110.751 80.0078 111.062 79.8521 111.062 79.7742C110.829 79.3072 110.518 78.8402 110.44 78.5288H110.362C110.129 78.6845 109.663 78.9958 109.352 79.1515L107.642 80.1634C107.254 80.397 106.709 80.7083 106.399 80.864C106.554 80.7083 106.709 80.9418 106.787 80.9418Z" fill="#3C0003"/>
<path fill-rule="evenodd" clip-rule="evenodd" d="M17.0206 69.498V69.4202L17.0983 69.5758L17.0206 69.498ZM25.8807 64.9055L26.2693 66.3844L25.4921 67.8634L23.4714 69.4202L25.8807 64.9055ZM14.7667 75.803L17.6424 69.965L18.8859 69.031L19.0413 68.9531L16.2434 74.7911L14.7667 75.803ZM17.3315 73.9349L20.4403 67.8634L21.917 66.7736L18.8859 72.7673L17.3315 73.9349ZM20.1294 71.8332L23.4714 65.606L25.1812 64.3606L22.1501 70.3542L20.1294 71.8332Z" fill="#FFD026"/>
<path fill-rule="evenodd" clip-rule="evenodd" d="M30.5441 67.1634C30.5441 67.3191 35.285 67.7861 35.285 68.0974C35.2073 68.9537 35.2073 70.0434 35.2073 70.8997C35.2073 71.2889 35.2073 71.6781 35.2073 71.9894C35.2073 72.3008 35.285 73.0013 35.285 73.3905C35.285 73.7019 35.3627 74.0133 35.3627 74.4025C35.3627 74.7138 35.4404 75.103 35.4404 75.4144C35.5182 75.8036 35.829 76.8933 35.9068 77.049L39.6373 75.1809C39.4042 73.3905 39.6373 71.6781 39.5596 69.8099C39.4819 68.2531 39.5596 66.6185 39.5596 65.0617L41.7358 57.1221L33.886 52.9966L26.7358 56.5772L30.5441 67.1634Z" fill="#FFD026"/>
<path fill-rule="evenodd" clip-rule="evenodd" d="M122.254 65.0611C122.565 64.6719 122.798 64.2827 123.031 63.8157L125.674 69.5758L123.653 62.8816C123.731 62.7259 123.886 62.4924 123.964 62.3367C124.119 62.1032 124.197 61.9475 124.353 61.714L126.451 66.3066L124.897 60.78C125.13 60.3129 125.363 59.8459 125.596 59.4567V59.3788L126.995 62.8038L125.907 58.6004C126.296 57.8221 126.684 56.9658 126.995 56.1096C128.472 51.9841 129.327 48.1699 129.637 44.278C129.793 42.2541 129.793 40.2303 129.56 38.1286C129.482 36.5719 128.938 33.3026 128.627 31.668L130.726 37.0389L131.503 38.5957C131.58 38.9849 131.736 39.3741 131.891 40.0746C131.969 40.4638 132.047 40.9309 132.125 41.4757C132.202 41.9428 132.28 42.4098 132.358 42.8769C132.435 43.4217 132.513 43.9666 132.513 44.5893C132.513 45.1342 132.591 45.6012 132.591 46.1461V46.4575C132.591 47.158 132.591 47.9364 132.591 48.7148C132.591 49.4932 132.513 50.2716 132.513 51.05C132.435 51.8284 132.435 52.6068 132.358 53.3074C132.28 54.0858 132.125 54.8641 132.047 55.6425C131.891 56.4209 131.736 57.355 131.503 58.2112C131.27 58.9896 131.036 59.8459 130.803 60.7021C130.492 61.5583 130.182 62.4146 129.793 63.193C129.404 64.0492 129.016 64.9054 128.627 65.7617C128.239 66.5401 127.772 67.3963 127.384 68.1747C126.84 69.1088 126.373 69.965 125.985 70.5877C125.596 71.2105 125.285 71.7553 124.974 72.2224L122.254 65.0611ZM124.819 72.378C124.508 72.8451 124.197 73.2343 123.886 73.6235C123.575 74.0127 123.264 74.4019 122.954 74.7132L120.389 67.3185C120.777 66.9293 121.088 66.4622 121.477 65.9174L124.819 72.378ZM122.954 74.8689C122.876 74.9468 122.176 75.6473 122.099 75.6473C121.788 75.9587 121.555 76.1143 121.321 76.27L118.601 69.6537L119.068 69.1088C119.301 68.8753 119.534 68.5639 119.845 68.1747L122.954 74.8689Z" fill="url(#paint3_linear)"/>
<path fill-rule="evenodd" clip-rule="evenodd" d="M109.197 64.9055L108.808 66.3844L109.585 67.8634L111.684 69.4202L109.197 64.9055ZM120.311 75.803L117.435 69.965L116.191 69.031L116.036 68.9531L118.834 74.7911L120.311 75.803ZM117.746 73.9349L114.637 67.8634L113.16 66.7736L116.191 72.7673L117.746 73.9349ZM114.948 71.8332L111.606 65.606L109.896 64.3606L112.927 70.3542L114.948 71.8332Z" fill="#FFD026"/>
<path fill-rule="evenodd" clip-rule="evenodd" d="M31.0105 39.2196L24.482 37.1957C24.4043 38.2855 24.1711 39.2974 23.8602 40.3871C24.3265 39.9979 24.9483 39.7644 25.5701 39.7644C26.3473 39.7644 27.1245 39.9979 27.8239 40.5428H27.9017C28.2903 40.932 28.6011 41.3212 28.8343 41.7104C29.0675 41.3212 29.3783 40.932 29.6115 40.6207C30.0778 40.1536 30.5442 39.6866 31.0105 39.2196ZM15.2333 34.3935L7.15037 31.9805C6.68405 33.8486 6.45089 38.5968 6.37317 40.7763C6.37317 42.0996 6.37317 43.5007 6.52861 44.824C6.60633 46.1473 6.83949 47.4706 7.07265 48.716C7.30581 49.9614 7.61669 51.2069 8.00529 52.3744C8.39389 53.6199 8.7825 54.7096 9.24882 55.8772C9.71514 56.967 10.1815 58.0567 10.7255 59.0687C11.2695 60.0806 11.7359 61.0146 12.2799 61.8709C12.8239 62.805 13.368 63.5833 13.912 64.4396C14.5338 65.2958 15.1556 66.0742 15.6996 66.7748C16.2436 67.4753 16.7877 68.0202 17.0986 68.4872L17.4094 68.8764L18.3421 68.1759L25.2592 63.5055C25.1037 62.8828 25.026 62.1822 24.9483 61.5595C24.8706 60.9368 24.7929 60.3141 24.7929 59.6914C24.7151 59.0687 24.7151 58.4459 24.7151 57.7454C24.7151 57.0448 24.7151 56.3443 24.7151 55.6437C24.7151 54.9432 24.7929 54.2426 24.8706 53.542C24.9483 52.8415 25.026 52.2188 25.1037 51.5961C25.1815 50.9733 25.3369 50.4285 25.4923 49.8836C25.6478 49.3387 25.7255 48.8717 25.8809 48.3268C26.0364 47.7819 26.1918 47.3927 26.3473 46.8478C26.5027 46.5365 26.5804 46.1473 26.7359 45.8359C26.6581 45.8359 26.6581 45.8359 26.5804 45.8359C25.8032 45.8359 25.026 45.6024 24.3265 44.9797C23.6271 44.4348 23.2385 43.6564 23.083 42.878C23.083 42.8002 23.083 42.8002 23.083 42.7223C23.0053 42.9559 22.8499 43.1894 22.7721 43.4229L22.2281 44.4348L21.2954 43.8121C17.9535 41.4769 15.855 38.2855 15.2333 34.3935ZM14.1452 50.662C14.9224 50.8955 15.7773 51.3625 16.4768 51.9852C16.7877 52.2966 17.0208 52.5301 17.1763 52.8415C17.4872 53.3864 17.6426 53.8534 17.6426 54.3204C17.6426 54.7875 17.4872 55.2545 17.1763 55.5659C17.0986 55.6437 16.9431 55.7994 16.7877 55.7994C16.1659 56.1886 15.3887 56.1886 14.5338 56.0329C13.7566 55.7994 12.9017 55.3324 12.2022 54.7096C11.8913 54.3983 11.6581 54.0869 11.5027 53.7756C11.1918 53.3085 11.0364 52.7636 11.0364 52.2966C11.0364 51.8296 11.1918 51.3625 11.5027 51.0512C11.5804 50.9733 11.7359 50.8177 11.8913 50.7398C12.5131 50.4285 13.2903 50.4285 14.1452 50.662ZM16.1659 61.4038C16.0882 60.9368 16.1659 60.4698 16.4768 60.0806C16.7877 59.6914 17.1763 59.5357 17.7203 59.5357C18.1866 59.5357 18.653 59.6914 19.1193 60.0806C19.5079 60.3919 19.8188 60.859 19.8965 61.326C19.9742 61.793 19.8965 62.2601 19.5856 62.6493C19.2747 63.0385 18.8861 63.1942 18.3421 63.1942C17.8758 63.1942 17.4094 63.0385 17.0208 62.7271C16.5545 62.3379 16.3214 61.8709 16.1659 61.4038ZM20.1296 53.2307C20.3628 52.9972 20.596 52.8415 20.9068 52.8415C21.14 52.8415 21.4509 52.9193 21.6841 53.1528C21.9172 53.3864 22.0726 53.6199 22.1504 53.8534C22.2281 54.1648 22.1504 54.4761 21.9949 54.6318V54.7096C21.7618 54.9432 21.5286 55.021 21.2177 55.021C20.9068 55.021 20.6737 54.9432 20.4405 54.7096C20.2074 54.4761 20.0519 54.2426 19.9742 53.9312C19.8965 53.7756 19.8965 53.4642 20.1296 53.2307Z" fill="#FFD026"/>
<path fill-rule="evenodd" clip-rule="evenodd" d="M51.8393 53.539C48.3419 50.0363 45.6994 45.2102 45.1553 40.1507C44.6113 35.0911 46.088 29.6423 50.9843 25.5168C51.0621 20.0681 50.6735 14.775 50.2849 9.40405C49.8963 3.87744 44.4558 8.08077 43.29 10.2603C43.1346 10.4938 43.3678 10.8052 43.5232 10.9608C45.2331 12.0506 49.7408 12.4398 49.7408 17.3437C49.7408 20.3016 46.9429 23.493 44.0672 23.4152C40.259 23.2595 40.1812 17.0323 44.6113 13.7631C44.689 13.6852 44.7667 13.6852 44.8444 13.6852C44.6113 13.6074 44.4558 13.4517 44.2227 13.296C42.746 12.4398 41.5802 11.7392 41.0362 11.1944C40.803 11.0387 40.9584 10.6495 41.2693 10.2603C43.9895 6.67966 47.2538 3.25472 52.6942 3.87744C53.0828 6.60182 53.2382 9.40405 53.4714 12.2063C56.9688 8.46997 61.0103 12.7511 60.1553 17.2658C59.3781 22.0919 55.8807 22.2476 53.7823 20.4573C53.86 21.3135 53.7823 22.4032 53.7823 23.5708C56.5025 22.014 60.3108 21.3913 63.4973 22.4811C66.6838 23.493 69.1709 26.1395 69.3263 30.7321C69.4818 35.9473 62.6424 35.8695 56.4248 31.2769C56.2693 30.7321 56.1139 30.1872 55.8807 29.6423C60.3885 33.0673 65.0517 32.5224 64.8963 29.4088C64.6631 24.0379 58.0569 22.0919 53.6268 25.2055C53.6268 34.5462 53.0051 44.354 51.8393 53.539ZM21.917 43.0307C18.1864 40.3842 16.2434 36.8814 16.088 32.7559C15.8548 28.7082 17.3315 23.96 20.2071 19.5232C20.2849 19.3675 20.4403 19.2118 20.518 19.0561C20.518 18.5113 20.518 17.9664 20.518 17.4215C17.7201 17.5772 15.0776 18.9783 12.4351 20.4573C12.3574 20.2237 12.2797 19.9124 12.202 19.6789C15.9325 17.3437 19.5077 15.8647 22.7719 15.0863C23.1605 15.0085 23.5491 14.9306 23.9377 14.8528C24.2486 14.4636 24.6372 14.1523 24.9481 13.7631C29.5336 9.24837 35.8289 5.66775 43.4455 5.04503C41.1916 6.99102 39.2486 9.32621 37.6165 11.8949C34.8185 9.17053 30.2331 10.4938 26.1916 13.9187C25.9584 14.1523 25.7253 14.3858 25.4921 14.6193C25.6476 14.6193 25.803 14.5415 26.0362 14.5415C24.2486 17.1102 24.1709 19.2118 24.5595 20.8465C24.6372 21.0021 24.6372 21.2357 24.7149 21.3913C24.9481 21.0021 25.259 20.6908 25.4921 20.3016C26.347 19.2118 27.3574 18.4334 28.3678 18.1999C29.3004 17.9664 30.2331 18.5891 30.2331 19.9902C30.2331 21.4692 29.3781 24.4271 31.0103 23.8044C31.1657 23.7265 31.3989 23.5708 31.7097 23.3373C31.7875 23.2595 31.8652 23.1816 31.9429 23.1038V23.026C31.632 20.1459 34.0413 15.7869 36.9947 15.709C42.0465 15.709 40.8807 24.8941 36.2175 25.7503C36.0621 25.8282 35.9066 25.8282 35.7512 25.8282C34.0413 25.9839 33.031 25.439 32.4092 24.5827C32.3315 24.4271 32.2538 24.3492 32.1761 24.1936C32.0983 24.4271 32.0206 24.7384 31.9429 24.9719C31.3989 26.2174 28.6009 28.319 26.8911 27.3071C25.7253 26.6066 25.3367 22.4811 24.8704 23.5708C22.3056 28.2412 25.3367 35.7916 21.917 43.0307ZM118.912 40.7734C118.368 40.5398 117.824 40.1507 117.28 39.7615C114.637 37.6598 111.528 33.5343 110.129 29.4866C110.129 29.4088 110.052 29.331 110.052 29.2531C109.974 29.331 109.896 29.331 109.896 29.4088C109.819 29.4866 109.663 29.5645 109.585 29.6423C109.352 29.798 109.197 29.8758 108.964 29.9537C107.487 30.5764 106.01 29.9537 104.611 26.6066C102.435 27.6963 100.648 26.9958 99.3263 23.8822C95.2849 26.5287 94.1968 21.3135 93.9636 18.5891C93.8859 17.188 93.031 16.721 92.7978 18.0442C92.5647 19.7567 92.6424 21.0021 92.9533 23.1038C92.0206 23.3373 89.689 24.0379 89.689 24.1157C89.9222 20.3794 90.0776 16.6431 90.233 12.829C91.2434 12.7511 92.2538 12.9068 93.3419 13.296C93.575 14.775 94.0413 15.709 94.1968 15.3977C95.6735 7.61374 103.212 4.03312 107.409 9.79324C108.964 11.8949 108.342 15.1642 106.166 15.9426C105.233 10.4938 102.668 9.09269 100.259 9.7154C97.8496 10.416 95.5957 13.1403 95.2849 15.6312C96.6838 14.775 98.0828 16.2539 97.6942 17.8107C97.0724 19.3675 96.6061 21.9362 97.461 22.6368C99.0154 23.7265 100.414 20.3794 98.86 16.9545C99.8704 16.4096 101.114 16.6431 102.668 17.8886C102.28 18.1221 101.813 24.3492 102.979 24.5827C104.145 24.8941 104.534 21.8584 104.611 18.5113C105.933 19.0561 106.943 18.2777 108.342 20.6908C107.565 23.2595 106.632 26.6066 107.798 27.7742C108.264 28.1634 108.73 28.2412 109.119 27.852C109.197 27.6963 109.352 27.5407 109.43 27.385C109.274 26.5287 109.197 25.6725 109.041 24.8163C108.653 18.7448 112.15 17.8107 114.482 21.4692C116.736 25.1276 116.114 30.3429 112.772 30.1872C112.694 30.1872 112.694 30.1872 112.616 30.1872C113.549 33.69 115.648 37.5819 118.756 39.4501C118.912 39.8393 118.912 40.3063 118.912 40.7734ZM49.2745 41.1626C50.0517 40.8512 50.8289 32.9116 50.9066 27.4628C47.5647 30.5764 46.7097 38.1268 49.1968 41.1626C49.1968 41.1626 49.1968 41.1626 49.2745 41.1626ZM96.5284 33.6121C95.2849 33.8456 94.0413 33.7678 92.8755 33.3008C88.8341 31.8218 85.1035 27.0736 83.3937 22.4032C83.2382 21.8584 83.0828 21.3135 82.9273 20.6908C82.6942 20.8465 82.5387 21.0021 82.3833 21.1578C81.6838 21.547 81.0621 21.7027 80.4403 21.547C79.1968 21.1578 78.1087 19.6789 77.8755 17.1102C77.8755 17.0323 77.8755 16.8766 77.8755 16.7988C77.7201 16.721 77.6424 16.6431 77.4869 16.5653C77.0206 16.3318 76.5543 16.1761 76.0103 16.2539C76.0103 16.4096 76.0103 16.5653 75.9325 16.7988C75.7771 18.0442 75.6217 19.2118 75.4662 20.3016C74.6113 20.2237 73.7564 20.1459 72.8237 20.0681C72.8237 19.601 72.8237 19.134 72.8237 18.6669C72.746 18.7448 72.6683 18.8226 72.5906 18.9005C71.4248 19.9902 70.3367 20.4573 69.404 20.3794C68.4714 20.3016 67.6165 19.601 66.917 18.2778C64.1968 20.3016 62.1761 20.2237 61.0103 18.1221C60.233 16.7988 61.7097 14.1523 60.233 11.4279C61.3989 10.4938 62.7978 10.2603 64.4299 10.5716C64.1191 13.6074 63.9636 16.6431 65.0517 16.9545C66.2952 17.2658 66.7615 13.6852 66.917 10.416C68.1605 10.3381 69.9481 9.17053 71.2693 10.8052C70.6476 12.7511 70.0258 14.6971 70.259 17.1102C70.4921 18.3556 71.5025 18.4334 72.5906 17.4215C72.6683 17.3437 72.8237 17.188 72.9014 17.1102C72.9014 16.3318 72.9014 15.5534 72.9014 14.6971C72.8237 12.9847 72.746 11.2722 72.5906 9.7154C73.7564 9.48188 74.9999 9.48188 76.2434 9.94892C76.2434 10.9608 76.2434 11.8949 76.2434 12.829C76.2434 13.1403 76.2434 13.4517 76.1657 13.7631C76.3211 13.8409 76.4766 13.9187 76.632 13.9187C76.9429 13.9966 77.2538 14.0744 77.5647 14.0744C77.6424 14.0744 77.7978 14.0744 77.8755 14.0744C77.8755 13.9966 77.8755 13.8409 77.9533 13.7631C78.031 12.7511 78.2641 11.5836 78.575 10.3381C80.2071 10.2603 81.7616 10.4938 82.7719 11.5836C81.9947 13.6852 81.5284 15.9426 81.4507 18.5113C81.6838 19.6789 82.0724 19.7567 82.6165 19.3675C82.6942 19.2897 82.7719 19.2118 82.8496 19.134C82.7719 18.9005 82.7719 18.5891 82.7719 18.3556C82.6942 14.3079 84.4818 10.7273 87.5906 12.0506C87.6683 12.1284 87.746 12.1284 87.8237 12.2063C87.9014 11.8949 87.9792 11.5057 88.0569 11.2722C88.1346 10.883 88.29 10.416 88.4455 10.0268C88.9895 10.416 88.9895 10.3381 89.5336 11.1165C89.9222 14.3079 89.6113 17.655 89.4558 20.0681C89.2227 20.1459 89.0672 20.2237 88.8341 20.3016C88.3678 18.9005 88.0569 17.5772 87.8237 16.3318C87.8237 15.9426 87.746 15.5534 87.6683 15.0863H87.5906C84.404 16.4874 85.259 22.2476 87.9792 26.6844C90.6994 31.1213 95.2071 34.3905 99.6372 30.6542C99.8704 30.9656 100.026 31.2769 100.259 31.5883C98.9377 32.6781 97.6942 33.3786 96.5284 33.6121ZM19.6631 33.8456C19.6631 33.7678 19.6631 33.7678 19.6631 33.69C19.8185 32.6781 20.518 29.9537 21.6838 26.9958C21.6838 26.9958 21.6838 26.9958 21.6838 26.9179C21.6061 26.5287 21.4507 26.0617 21.2952 25.6725C21.0621 24.8163 20.9066 23.96 20.7512 23.1038C20.6735 22.3254 20.5957 21.547 20.518 20.7686C20.2849 21.1578 20.1294 21.4692 19.974 21.8584C18.1087 25.5947 17.4869 29.6423 19.1968 33.0673C19.2745 33.3008 19.5077 33.6121 19.6631 33.8456ZM112.383 27.385C114.093 28.5526 114.637 23.493 113.316 22.7924C112.306 22.2476 111.839 24.3492 112.228 27.2293C112.228 27.3071 112.306 27.3071 112.383 27.385ZM35.7512 24.1157C35.8289 24.1157 35.9843 24.1157 36.0621 24.0379C37.3833 23.4152 37.9274 18.0442 36.5284 17.7329C35.0517 17.4215 33.7305 24.0379 35.7512 24.1157ZM45.4662 21.0021C45.5439 21.0021 45.5439 21.0021 45.6217 21.0021C47.0206 20.4573 47.2538 15.4755 45.6217 14.3079C44.3004 15.7869 43.9118 19.9902 45.0776 20.8465C45.2331 21.0021 45.3885 21.0021 45.4662 21.0021ZM55.1812 19.3675C56.347 19.2118 57.5128 14.3858 56.5802 13.0625C55.6476 11.6614 53.7823 14.3858 53.5491 15.9426C53.3937 17.1102 54.0154 19.5232 55.1812 19.3675Z" fill="url(#paint4_linear)"/>
<path fill-rule="evenodd" clip-rule="evenodd" d="M103.99 39.2197L112.928 36.4953C114.094 38.0521 115.337 39.3753 116.658 40.4651C117.202 40.9321 117.824 41.3213 118.524 41.6327L119.923 42.3332L119.845 40.7765C119.845 40.3094 119.845 39.9202 119.845 39.4532V38.9083L119.379 38.6748C118.135 37.8964 117.125 36.8066 116.192 35.5612L128.627 31.7471C129.171 33.6152 129.715 38.5969 129.715 40.7765C129.715 42.0997 129.715 43.5008 129.56 44.8241C129.482 46.1474 129.249 47.6263 129.016 48.8718C128.783 50.1172 128.472 51.4405 128.161 52.6081C127.772 53.7757 127.461 55.0989 126.995 56.1887C126.529 57.2784 125.985 58.446 125.518 59.4579C125.052 60.4699 124.586 61.4039 124.042 62.2602C123.498 63.1164 123.031 63.9726 122.487 64.751C121.788 65.6851 120.233 67.7089 119.845 68.0981L118.601 69.5771L116.736 68.0203L109.819 63.3499C109.974 62.7272 110.052 62.1045 110.13 61.4818C110.208 60.7812 110.285 60.2363 110.285 59.6136C110.363 58.9909 110.363 58.3682 110.363 57.6676C110.363 56.9671 110.363 56.2665 110.363 55.566C110.363 54.8654 110.285 54.1649 110.208 53.4643C110.13 52.7637 110.052 52.141 109.974 51.5183C109.897 50.8956 109.741 50.3507 109.586 49.8058C109.43 49.261 109.353 48.7939 109.197 48.2491C109.042 47.7042 108.886 47.315 108.731 46.7701C108.575 46.4587 108.498 46.0695 108.342 45.7582C108.42 45.7582 108.42 45.7582 108.498 45.7582C109.275 45.7582 110.052 45.5247 110.752 44.902C111.451 44.3571 111.84 43.5787 111.995 42.8003C112.151 42.0219 111.995 41.2435 111.529 40.6208C111.062 39.9981 110.285 39.6867 109.508 39.6867C108.731 39.6867 107.954 39.9202 107.254 40.4651C106.866 40.8543 106.477 41.2435 106.322 41.6327C106.088 41.2435 105.778 40.8543 105.544 40.5429C104.923 40.1537 104.456 39.6867 103.99 39.2197ZM120.855 50.6621C120.078 50.8956 119.223 51.3626 118.524 51.9854C118.213 52.2967 117.98 52.5302 117.824 52.8416C117.513 53.3865 117.358 53.8535 117.358 54.3205C117.358 54.8654 117.513 55.2546 117.824 55.566C117.902 55.6438 118.057 55.7995 118.213 55.7995C118.835 56.1887 119.612 56.1887 120.467 56.033C121.244 55.7995 122.099 55.3325 122.798 54.7097C123.109 54.3984 123.342 54.087 123.498 53.7757C123.809 53.3086 123.964 52.7637 123.964 52.2967C123.964 51.8297 123.809 51.3626 123.498 51.0513C123.42 50.9734 123.265 50.8178 123.109 50.7399C122.565 50.4286 121.71 50.4286 120.855 50.6621ZM118.835 61.4039C118.912 60.9369 118.835 60.4699 118.524 60.0807C118.213 59.6915 117.824 59.5358 117.28 59.5358C116.814 59.5358 116.347 59.6915 115.881 60.0807C115.493 60.392 115.182 60.8591 115.104 61.3261C115.026 61.7931 115.104 62.2602 115.415 62.6494C115.726 63.0386 116.114 63.1942 116.658 63.1942C117.125 63.1942 117.591 63.0386 117.98 62.7272C118.446 62.338 118.757 61.871 118.835 61.4039ZM114.949 53.2308C114.715 52.9973 114.482 52.8416 114.171 52.8416C113.938 52.8416 113.627 52.9194 113.394 53.1529C113.161 53.3865 113.006 53.62 112.928 53.8535C112.85 54.1649 112.928 54.4762 113.083 54.6319C113.316 54.8654 113.55 55.0211 113.86 55.0211C114.094 55.0211 114.404 54.9433 114.638 54.7097C114.871 54.4762 115.026 54.2427 115.104 53.9313C115.182 53.7757 115.104 53.4643 114.949 53.2308Z" fill="#FFD026"/>
<path fill-rule="evenodd" clip-rule="evenodd" d="M31.2434 50.0372C29.8445 48.8696 28.7564 47.3128 28.3678 45.5225C28.2901 45.289 28.2901 44.9777 28.2901 44.7441C28.0569 45.1333 27.9015 45.4447 27.746 45.8339C27.5129 46.3009 27.3574 46.768 27.1243 47.235C26.9688 47.702 26.8134 48.1691 26.6579 48.6361C26.5025 49.1032 26.347 49.5702 26.2693 50.1151C26.1139 50.6599 26.0362 51.2048 25.8807 51.7497C25.803 52.3724 25.7253 52.9951 25.6476 53.6178C25.5698 54.2406 25.5698 54.9411 25.4921 55.6417C25.4921 56.3422 25.4921 57.0428 25.4921 57.6655C25.4921 58.2882 25.4921 58.9109 25.5698 59.5336C25.5698 60.1564 25.6476 60.7791 25.7253 61.4018C25.803 62.0245 25.9584 62.6472 26.0362 63.2699C26.1916 63.9705 26.347 64.5932 26.5025 65.2159C26.6579 65.8386 26.8911 66.4614 27.0465 67.0062C27.2797 67.629 27.4351 68.1738 27.746 68.7187C27.9792 69.2636 28.2901 69.7306 28.5232 70.2755C28.8341 70.7425 29.145 71.2096 29.4559 71.6766C29.7667 72.1436 30.0776 72.5328 30.4662 72.922C30.8548 73.3112 31.2434 73.7004 31.5543 74.0896C31.9429 74.4788 32.2538 74.7902 32.6424 75.0237C33.031 75.3351 33.4196 75.5686 33.8082 75.8021C34.1191 76.0356 34.5077 76.2691 34.7408 76.4248C35.1294 76.6583 35.4403 76.814 35.6735 76.9697C35.1294 74.1675 35.0517 72.3772 35.1294 69.1079L35.2072 67.1619C33.575 67.2397 32.1761 66.617 31.0103 65.4494C29.9999 64.4375 29.5336 63.1921 29.2227 61.8688C28.9118 60.5456 28.8341 58.5217 29.3004 57.2763C29.6113 56.4979 30.4662 55.1746 31.3211 55.019C31.7097 54.9411 32.1761 55.0968 32.4092 55.4082C32.7201 55.8752 32.6424 56.8871 32.6424 57.432C32.6424 58.1325 32.5647 59.5336 32.7201 60.1564C32.7978 60.6234 33.031 60.9348 33.4196 61.2461C34.0413 61.791 35.2071 61.9467 35.8289 61.2461C36.6061 60.3899 36.5284 57.7433 36.4507 56.6536C36.2952 55.1746 35.9844 54.3184 35.0517 53.1508C33.8082 51.5162 32.9533 51.4383 31.2434 50.0372Z" fill="url(#paint5_linear)"/>
<path fill-rule="evenodd" clip-rule="evenodd" d="M44.9999 62.1029C44.9999 60.1569 45.1554 58.5223 45.544 56.732C45.4663 56.732 45.4663 56.732 45.4663 56.6542C45.3108 56.5763 45.0777 56.5763 44.8445 56.4206C44.6113 56.3428 44.3782 56.265 44.145 56.1871C43.8341 56.0314 43.4455 55.8758 43.0569 55.7201C42.7461 55.5644 43.4455 55.8758 42.6683 55.5644L42.1243 55.3309C41.7357 55.1752 41.3471 55.0195 41.0362 54.8638C40.8031 54.786 40.5699 54.6303 40.3367 54.5525C39.4818 57.2769 39.3264 60.3905 39.2486 63.1927C39.0932 68.0187 38.9378 72.8448 39.7927 77.593L39.9481 78.3714V78.4492C41.8134 79.2276 45.6994 80.0838 47.7979 80.5509C49.2746 80.9401 50.829 81.5628 52.2279 81.0958L53.0051 80.7066C55.3367 77.8265 55.4922 69.6533 53.9378 66.5398C53.3937 65.3722 52.6942 64.7495 51.4507 64.3603C50.3626 64.0489 49.0414 63.8154 47.7979 63.5819L45.8549 63.1148C45.0777 62.9592 44.9999 62.9592 44.9999 62.1029Z" fill="url(#paint6_linear)"/>
<path fill-rule="evenodd" clip-rule="evenodd" d="M65.285 62.2586V59.3785H65.2072H64.43C64.1192 59.3785 63.7305 59.3785 63.4197 59.3785C62.7202 59.3785 62.0984 59.3007 61.3989 59.3007H61.1658H60.544L59.0673 59.2229C58.8342 59.2229 58.6787 59.2229 58.5233 59.145L58.4456 60.0013L58.3678 61.4024L58.2901 63.037V64.7495L58.2124 66.5398L58.1347 68.7193L58.057 70.8209C58.057 71.5215 58.057 72.1442 57.9792 72.6891C57.9792 73.3118 57.9792 73.8567 57.9792 74.4016C57.9792 74.9465 57.9792 75.4913 57.9792 76.114C57.9792 76.6589 57.9792 77.2038 57.9792 77.7487L58.057 79.3055L58.1347 80.7066L58.2901 81.952L58.3678 82.7304C58.601 82.7304 58.9119 82.8082 59.2228 82.8082C59.7668 82.8861 60.2331 82.8861 60.7772 82.9639C61.3212 82.9639 61.943 83.0418 62.487 83.0418C63.1865 83.1196 63.7305 83.1196 64.1969 83.1196C64.6632 83.1196 64.9741 83.1196 65.2072 83.1974H65.285V81.7963V79.7725V78.9941C65.285 77.6708 65.285 76.4254 65.285 75.5692V72.8448V70.9766V68.5636C65.285 67.6295 65.285 66.6955 65.285 65.9949V64.0489V62.2586Z" fill="url(#paint7_linear)"/>
<path fill-rule="evenodd" clip-rule="evenodd" d="M77.5648 58.9902C76.943 59.068 76.2435 59.068 75.5441 59.1459C75 59.2237 74.3783 59.2237 73.7565 59.2237C72.4352 59.3015 71.3472 59.3015 70.5699 59.3015C69.715 59.3015 70.2591 59.3015 69.6373 59.3015H69.4041V60.0021V61.4032L69.3264 63.9719V66.5406C69.3264 67.3969 69.3264 68.2531 69.3264 69.0315C69.3264 69.8877 69.3264 70.744 69.3264 71.678C69.3264 72.9235 69.3264 74.4024 69.3264 75.8814V78.2166C69.3264 80.8631 69.3264 82.4199 69.3264 83.0426H69.7927C70.1036 83.0426 70.4922 83.0426 71.0363 82.9648C71.5026 82.9648 71.9689 82.8869 72.5907 82.8869C73.1347 82.8091 73.6788 82.8091 74.2228 82.7313C74.7669 82.6534 75.1555 82.6534 75.4663 82.6534L76.1658 82.5756V78.9171C76.1658 77.516 76.1658 77.516 76.943 77.516C77.0208 77.516 77.1762 77.516 77.4094 77.516C77.6425 77.516 77.8757 77.4382 78.1088 77.4382C78.342 77.4382 78.6529 77.3603 78.9638 77.2825C79.2746 77.2046 79.5855 77.2046 79.8964 77.1268C80.2073 77.049 80.5182 76.9711 80.8291 76.8933C81.1399 76.8154 81.4508 76.6598 81.684 76.5819C81.9949 76.5041 82.228 76.3484 82.4612 76.1927C82.6943 76.037 83.0052 75.9592 83.2384 75.8035C83.4716 75.6479 83.627 75.57 83.8602 75.4143C84.0156 75.2587 84.2488 75.1808 84.4042 75.0251C84.5596 74.9473 84.6374 74.7916 84.7151 74.7138C84.7928 74.6359 84.8705 74.4803 85.026 74.2467C85.1037 74.0132 85.2591 73.7797 85.3369 73.5462C85.4146 73.3127 85.57 73.0013 85.6477 72.7678C85.7254 72.4564 85.8032 72.1451 85.8809 71.8337C85.9586 71.5224 86.0363 71.211 86.0363 70.9775C86.1141 70.744 86.1141 70.4326 86.1918 70.1212C86.2695 69.8877 86.2695 69.5764 86.2695 69.1872C86.2695 68.798 86.3472 68.4088 86.3472 68.0196C86.3472 67.5525 86.3472 67.0855 86.3472 66.6185C86.3472 66.1514 86.2695 65.6844 86.2695 65.1395C86.1918 64.5946 86.1918 64.1276 86.1141 63.7384C86.0363 63.3492 85.9586 63.0378 85.8809 62.8043C85.8032 62.5708 85.7254 62.2594 85.6477 62.0259C85.57 61.7146 85.4146 61.4811 85.3369 61.1697C85.2591 60.8583 85.1037 60.6248 85.026 60.3913C84.9482 60.1578 84.7928 59.9243 84.6374 59.7686C84.4819 59.5351 84.4042 59.3794 84.2488 59.2237C84.0933 59.068 84.0156 58.9902 83.8602 58.8345C83.7824 58.7567 83.627 58.6788 83.5493 58.601C83.4716 58.5231 83.3938 58.5232 83.3161 58.5232C83.2384 58.5232 83.1607 58.4453 83.0052 58.4453C82.9275 58.4453 82.7721 58.4453 82.6166 58.4453C82.4612 58.4453 82.228 58.4453 82.0726 58.4453C81.684 58.5232 81.2954 58.5231 80.7513 58.601L80.1296 58.6788C79.741 58.7567 79.3524 58.7567 78.9638 58.8345C78.5752 58.9123 78.1088 58.9902 77.5648 58.9902Z" fill="url(#paint8_linear)"/>
<path fill-rule="evenodd" clip-rule="evenodd" d="M109.197 51.6714C108.731 49.0249 107.954 46.7676 106.71 44.3545C106.71 44.2767 106.632 44.2767 106.632 44.1988L106.555 43.9653C106.555 45.5221 105.544 48.4022 104.378 49.4141C104.456 49.4919 104.456 49.5698 104.534 49.7255C104.689 49.959 104.767 50.1925 104.922 50.5038C105 50.8152 105.156 51.1266 105.233 51.4379C105.311 51.7493 105.389 52.1385 105.466 52.372C105.544 52.6834 105.622 52.9947 105.7 53.3839C105.777 53.7731 105.855 54.318 105.933 55.0185C106.01 55.8748 106.166 56.9645 106.244 58.21C106.321 59.0662 106.399 60.0003 106.399 60.9343C106.399 62.0241 106.399 62.9582 106.321 63.8144C106.244 64.6706 106.166 65.449 106.088 66.0717C106.01 66.6945 106.01 67.1615 105.933 67.7064C105.855 68.2512 105.855 68.6404 105.777 68.9518C105.7 69.341 105.622 69.7302 105.544 70.1972C105.466 70.5864 105.389 70.9756 105.311 71.4427C105.233 71.6762 105.233 71.9097 105.156 72.1432C105.622 71.5983 106.088 70.9756 106.555 70.1194C108.264 67.0837 109.352 62.9582 109.508 59.4554C109.663 57.1202 109.586 54.0845 109.197 51.6714Z" fill="url(#paint9_linear)"/>
<path fill-rule="evenodd" clip-rule="evenodd" d="M75.8551 63.8149C75.8551 63.5035 76.0883 63.1921 76.4769 63.1921H77.6427C78.0313 63.1921 78.3421 63.1921 78.653 63.27C78.8085 63.3478 78.9639 63.3478 79.1971 63.5035C79.3525 63.5813 79.508 63.737 79.6634 63.8927C79.8188 64.0484 79.8966 64.2819 80.052 64.5154C80.1297 64.7489 80.2852 64.9824 80.3629 65.2938C80.4406 65.6052 80.5183 65.9165 80.596 66.2279C80.6738 66.6171 80.6738 66.9284 80.7515 67.3176C80.7515 67.629 80.8292 68.0182 80.8292 68.3295C80.8292 68.7187 80.8292 69.0301 80.8292 69.3415C80.8292 69.6528 80.7515 69.9642 80.6738 70.2755C80.596 70.5869 80.596 70.8983 80.4406 71.2096C80.3629 71.4431 80.2852 71.6766 80.2074 71.8323C80.1297 72.0658 79.9743 72.2215 79.8966 72.2994C79.8188 72.455 79.6634 72.6107 79.4302 72.6886C79.2748 72.7664 79.1194 72.9221 78.8862 72.9999C78.7308 73.0778 78.4976 73.1556 78.3422 73.2334C78.109 73.3113 77.8758 73.3891 77.7204 73.467C77.3318 73.5448 77.0986 73.5448 76.8655 73.5448C76.5546 73.5448 76.2437 73.2334 76.2437 72.9221C76.2437 72.2994 76.2437 71.5988 76.2437 70.8204C76.2437 70.2755 76.2437 69.7307 76.166 69.0301C76.166 68.4852 76.166 67.8625 76.0883 67.3176C76.0105 66.15 76.0105 64.9824 75.9328 63.8927C75.8551 63.8927 75.8551 63.8149 75.8551 63.8149Z" fill="#FFD026"/>
<path fill-rule="evenodd" clip-rule="evenodd" d="M66.917 72.5332L65.3626 83.1194L65.2072 59.6897L67.3056 41.7866L66.917 72.5332Z" fill="#FFD026"/>
<path fill-rule="evenodd" clip-rule="evenodd" d="M44.6891 69.8864C44.6891 68.8745 44.7668 68.0183 44.7668 67.162C44.7668 67.0063 44.8445 66.9285 44.9222 66.7728C45 66.6171 45.2331 66.5393 45.4663 66.5393H45.544C46.2435 66.695 47.487 66.9285 47.9533 67.3955C48.886 68.0961 48.886 69.4194 48.886 70.587L48.6528 74.5568C48.4974 75.6465 47.8756 76.6584 46.6321 76.6584L45.3108 76.5028C45.3108 76.5028 45.3108 76.5028 45.2331 76.5028C45 76.4249 44.8445 76.2692 44.7668 76.0357V75.9579L44.6891 74.6346C44.6891 74.1676 44.6114 73.7005 44.6114 73.1557C44.6114 72.6108 44.5336 72.0659 44.5336 71.4432C44.6891 70.8983 44.6891 70.3534 44.6891 69.8864Z" fill="#FFD026"/>
<defs>
<linearGradient id="paint0_linear" x1="4.21568" y1="53.0438" x2="14.7542" y2="56.3525" gradientUnits="userSpaceOnUse">
<stop stop-color="#EE3137"/>
<stop offset="0.149" stop-color="#F1242E"/>
<stop offset="0.2706" stop-color="#CA303A"/>
<stop offset="0.3686" stop-color="#7B0022"/>
<stop offset="0.5608" stop-color="#BA5767"/>
<stop offset="0.8314" stop-color="#A4193E"/>
<stop offset="1" stop-color="#60172E"/>
</linearGradient>
<linearGradient id="paint1_linear" x1="92.8208" y1="55.6432" x2="97.5117" y2="79.9686" gradientUnits="userSpaceOnUse">
<stop stop-color="#F92E34"/>
<stop offset="0.0509804" stop-color="#FF656C"/>
<stop offset="0.2118" stop-color="#CF0003"/>
<stop offset="0.8" stop-color="#7C1C35"/>
<stop offset="0.9216" stop-color="#EB0F37"/>
<stop offset="1" stop-color="#48061A"/>
</linearGradient>
<linearGradient id="paint2_linear" x1="98.2359" y1="66.9249" x2="98.2359" y2="66.9249" gradientUnits="userSpaceOnUse">
<stop stop-color="#F92E34"/>
<stop offset="0.0509804" stop-color="#FF656C"/>
<stop offset="0.2118" stop-color="#CF0003"/>
<stop offset="0.8" stop-color="#7C1C35"/>
<stop offset="0.9216" stop-color="#EB0F37"/>
<stop offset="1" stop-color="#48061A"/>
</linearGradient>
<linearGradient id="paint3_linear" x1="130.707" y1="52.1177" x2="120.355" y2="55.4944" gradientUnits="userSpaceOnUse">
<stop stop-color="#EE3137"/>
<stop offset="0.149" stop-color="#F1242E"/>
<stop offset="0.2706" stop-color="#CA303A"/>
<stop offset="0.3686" stop-color="#7B0022"/>
<stop offset="0.5608" stop-color="#BA5767"/>
<stop offset="0.8314" stop-color="#A4193E"/>
<stop offset="1" stop-color="#60172E"/>
</linearGradient>
<linearGradient id="paint4_linear" x1="65.5112" y1="10.3047" x2="65.5112" y2="46.5165" gradientUnits="userSpaceOnUse">
<stop stop-color="#7F3729"/>
<stop offset="0.4706" stop-color="#6E0011"/>
<stop offset="1" stop-color="#310615"/>
</linearGradient>
<linearGradient id="paint5_linear" x1="33.1577" y1="45.2604" x2="29.4415" y2="76.4616" gradientUnits="userSpaceOnUse">
<stop stop-color="#F92E34"/>
<stop offset="0.0509804" stop-color="#FF656C"/>
<stop offset="0.2118" stop-color="#CF0003"/>
<stop offset="0.8" stop-color="#7C1C35"/>
<stop offset="0.9216" stop-color="#EB0F37"/>
<stop offset="1" stop-color="#48061A"/>
</linearGradient>
<linearGradient id="paint6_linear" x1="49.2157" y1="55.0784" x2="44.5653" y2="81.2253" gradientUnits="userSpaceOnUse">
<stop stop-color="#F92E34"/>
<stop offset="0.0509804" stop-color="#FF656C"/>
<stop offset="0.2118" stop-color="#CF0003"/>
<stop offset="0.8" stop-color="#7C1C35"/>
<stop offset="0.9216" stop-color="#EB0F37"/>
<stop offset="1" stop-color="#48061A"/>
</linearGradient>
<linearGradient id="paint7_linear" x1="62.085" y1="59.0975" x2="61.5624" y2="83.1872" gradientUnits="userSpaceOnUse">
<stop stop-color="#F92E34"/>
<stop offset="0.0509804" stop-color="#FF656C"/>
<stop offset="0.2118" stop-color="#CF0003"/>
<stop offset="0.8" stop-color="#7C1C35"/>
<stop offset="0.9216" stop-color="#EB0F37"/>
<stop offset="1" stop-color="#48061A"/>
</linearGradient>
<linearGradient id="paint8_linear" x1="76.9661" y1="58.2939" x2="78.301" y2="83.2889" gradientUnits="userSpaceOnUse">
<stop stop-color="#F92E34"/>
<stop offset="0.0509804" stop-color="#FF656C"/>
<stop offset="0.2118" stop-color="#CF0003"/>
<stop offset="0.8" stop-color="#7C1C35"/>
<stop offset="0.9216" stop-color="#EB0F37"/>
<stop offset="1" stop-color="#48061A"/>
</linearGradient>
<linearGradient id="paint9_linear" x1="106.955" y1="44.0213" x2="106.955" y2="72.2401" gradientUnits="userSpaceOnUse">
<stop stop-color="#F92E34"/>
<stop offset="0.0509804" stop-color="#FF656C"/>
<stop offset="0.2118" stop-color="#CF0003"/>
<stop offset="0.8" stop-color="#7C1C35"/>
<stop offset="0.9216" stop-color="#EB0F37"/>
<stop offset="1" stop-color="#48061A"/>
</linearGradient>
</defs>
</svg>
