<svg width="45" height="45" viewBox="0 0 45 45" fill="none" xmlns="http://www.w3.org/2000/svg">
<path fill-rule="evenodd" clip-rule="evenodd" d="M35.146 12.9322C34.8863 12.2284 34.4734 11.5902 33.9322 11.0678C33.4098 10.5297 32.7716 10.1137 32.0678 9.85401C31.4953 9.63191 30.6382 9.36601 29.0553 9.29406C27.3441 9.21585 26.8311 9.20021 22.5016 9.20021C18.1689 9.20021 17.6559 9.21585 15.9447 9.29406C14.3618 9.36601 13.5047 9.63191 12.9322 9.85401C12.2284 10.1137 11.5902 10.5297 11.0678 11.0678C10.5297 11.5902 10.1137 12.2284 9.85401 12.9322C9.63191 13.5047 9.36601 14.3618 9.29406 15.9447C9.21585 17.6559 9.20021 18.1689 9.20021 22.5016C9.20021 26.8311 9.21585 27.3441 9.29406 29.0553C9.36601 30.6382 9.63191 31.4953 9.85401 32.0678C10.1137 32.7716 10.5266 33.4098 11.0678 33.9322C11.5902 34.4734 12.2284 34.8863 12.9322 35.146C13.5047 35.3681 14.3618 35.634 15.9447 35.7059C17.6559 35.7841 18.1689 35.7998 22.4984 35.7998C26.8311 35.7998 27.3441 35.7841 29.0553 35.7059C30.6382 35.634 31.4953 35.3681 32.0678 35.146C33.4818 34.6017 34.6017 33.4818 35.146 32.0678C35.3681 31.4953 35.634 30.6382 35.7059 29.0553C35.7841 27.3441 35.7998 26.8311 35.7998 22.5016C35.7998 18.1689 35.7841 17.6559 35.7059 15.9447C35.634 14.3618 35.3681 13.5047 35.146 12.9322ZM41.7529 0H3.24713C1.45464 0 0 1.45464 0 3.24713V41.7529C0 43.5454 1.45464 45 3.24713 45H41.7529C43.5454 45 45 43.5454 45 41.7529V3.24713C45 1.45464 43.5454 0 41.7529 0ZM38.6246 29.1898C38.5464 30.9166 38.2711 32.0928 37.8707 33.1251C37.0292 35.3055 35.3055 37.0292 33.1251 37.8707C32.0959 38.2711 30.9166 38.5464 29.1898 38.6246C27.4599 38.7028 26.9062 38.7216 22.5016 38.7216C18.0938 38.7216 17.5433 38.7028 15.8133 38.6246C14.0865 38.5464 12.9072 38.2711 11.8749 37.8707C10.7925 37.464 9.81022 36.8259 9 36C8.17414 35.1898 7.53597 34.2075 7.1293 33.1251C6.72888 32.0959 6.4536 30.9166 6.37539 29.1898C6.29718 27.4599 6.27841 26.9062 6.27841 22.4984C6.27841 18.0938 6.29718 17.5401 6.37539 15.8102C6.4536 14.0834 6.72888 12.9072 7.1293 11.8749C7.53597 10.7925 8.17414 9.81022 9 9C9.81022 8.17414 10.7925 7.53597 11.8749 7.1293C12.9072 6.72888 14.0834 6.4536 15.8133 6.37539C17.5433 6.29718 18.0938 6.27841 22.5016 6.27841C26.9062 6.27841 27.4599 6.29718 29.1898 6.37539C30.9166 6.4536 32.0959 6.72888 33.1251 7.1293C34.2075 7.53597 35.1898 8.17414 36 9C36.8259 9.81022 37.464 10.7925 37.8707 11.8749C38.2711 12.9072 38.5464 14.0834 38.6246 15.8102C38.7028 17.5401 38.7216 18.0938 38.7216 22.4984C38.7216 26.9062 38.7028 27.4567 38.6246 29.1898ZM27.9072 22.4984C27.9072 25.4859 25.4859 27.9072 22.5016 27.9072C19.5141 27.9072 17.0928 25.4859 17.0928 22.4984C17.0928 19.5141 19.5141 17.0928 22.5016 17.0928C25.4859 17.0928 27.9072 19.5141 27.9072 22.4984ZM22.5016 30.829C17.8999 30.829 14.171 27.1001 14.171 22.4984C14.171 17.8999 17.8999 14.171 22.5016 14.171C27.1001 14.171 30.829 17.8999 30.829 22.4984C30.829 27.1001 27.1001 30.829 22.5016 30.829ZM31.1606 15.7883C30.0845 15.7883 29.2117 14.9155 29.2117 13.8394C29.2117 12.7664 30.0845 11.8936 31.1606 11.8936C32.2336 11.8936 33.1064 12.7664 33.1064 13.8394C33.1064 14.9155 32.2336 15.7883 31.1606 15.7883Z" fill="#293955"/>
</svg>
