<svg width="45" height="45" viewBox="0 0 45 45" fill="none" xmlns="http://www.w3.org/2000/svg">
<path d="M42.6064 0H2.39362C1.07186 0 0 1.07138 0 2.39362V42.6064C0 43.9286 1.07186 45 2.39362 45H42.6064C43.9286 45 45 43.9286 45 42.6064V2.39362C45 1.07138 43.9286 0 42.6064 0ZM22.5383 4.19649C27.6602 4.20941 31.7724 8.40016 31.747 13.5804C31.7197 18.6405 27.5405 22.7422 22.4268 22.725C17.3638 22.7078 13.2123 18.5108 13.241 13.4397C13.2712 8.31303 17.4255 4.18117 22.5383 4.19649ZM32.9137 26.3643C31.781 27.528 30.4176 28.3687 28.9029 28.957C27.4711 29.5104 25.9023 29.791 24.3493 29.9767C24.5839 30.2323 24.6945 30.3563 24.84 30.5043C26.9483 32.6226 29.0652 34.7323 31.1663 36.8569C31.8815 37.5803 32.0328 38.4779 31.6379 39.3199C31.2065 40.2415 30.2419 40.8461 29.295 40.781C28.6956 40.7389 28.2284 40.4406 27.8138 40.0237C26.2226 38.4223 24.6011 36.8512 23.0434 35.2216C22.59 34.7467 22.3717 34.8353 21.9705 35.2484C20.3702 36.8962 18.7449 38.5186 17.1091 40.1314C16.3743 40.8562 15.5006 40.9859 14.647 40.5728C13.7413 40.1338 13.1659 39.2094 13.2104 38.2792C13.241 37.6511 13.5503 37.1714 13.9816 36.7406C16.0669 34.6577 18.1474 32.5695 20.2289 30.4827C20.3673 30.3448 20.4956 30.1969 20.6962 29.9824C17.8578 29.6861 15.2986 28.9881 13.1084 27.2743C12.837 27.0613 12.556 26.8554 12.307 26.617C11.3486 25.696 11.2524 24.6423 12.0112 23.5551C12.6594 22.6254 13.7499 22.3755 14.8821 22.9093C15.1018 23.0122 15.3105 23.142 15.5106 23.2803C19.5932 26.0856 25.2024 26.1637 29.3007 23.4077C29.7062 23.0979 30.1404 22.8413 30.644 22.714C31.623 22.4627 32.5336 22.8212 33.0592 23.6772C33.661 24.6523 33.6528 25.606 32.9137 26.3643Z" fill="#4B3C2B"/>
<path d="M22.5244 17.9952C25.0363 17.9871 27.0369 15.9702 27.0278 13.4526C27.0177 10.935 25.0138 8.92965 22.501 8.92774C19.9671 8.92534 17.9435 10.9666 17.9632 13.5072C17.9818 16.0152 20.0049 18.0058 22.5244 17.9952Z" fill="#4B3C2B"/>
</svg>
